<svg xmlns="http://www.w3.org/2000/svg" viewBox="0 0 100 100"><path fill="#a0d2a1" d="M51.629,52.841c0,0,1.119,11.378,12.394,11.138c4.5-0.096,6.751-3.303,11.138-1.309 c1.755,0.798,3,2.362,3,2.362C78.416,48.569,57.799,41.862,51.629,52.841z"/><path fill="#a0d2a1" d="M48.118,50.968c-15.152-9.937-24.248,0.913-25.34,12.702c0,0,1.674-1.151,3.383-1.596 c3.021-0.787,15.223,3.83,19.66-5.936"/><path fill="#70b570" d="M73.93,53.311c-7.45-1.747-7.677,2.158-7.429,4.445c0.426,3.926-2.415,4.468-3.213,5.809 c5.983-1.826,11.614-2.799,15.16,1.263L73.93,53.311z"/><path fill="#70b570" d="M41.757,47.579c-4.936,1.181-0.5,7.053-2.532,10.213c-2.186,3.4-6.298,0.702-10.574,3.617 c4.86,0.779,9.656,0.294,14.397-1.273c3.561-1.177,5.676-5.083,4.29-8.567C46.475,49.403,44.631,48.06,41.757,47.579z"/><path fill="#1f212b" d="M22.778,64.67c-0.175,0-0.35-0.045-0.506-0.138c-0.335-0.196-0.526-0.568-0.49-0.955 c0.695-7.507,4.354-13.726,9.55-16.229c3.443-1.66,9.245-2.522,17.334,2.782c0.462,0.303,0.591,0.923,0.288,1.385 c-0.303,0.462-0.922,0.591-1.385,0.288c-5.784-3.794-11.098-4.711-15.37-2.653c-4.123,1.986-7.155,6.744-8.17,12.663 c0.566-0.271,1.217-0.535,1.879-0.708c0.922-0.239,2.289-0.098,4.018,0.081c4.754,0.492,11.94,1.237,14.982-5.462 c0.229-0.503,0.823-0.723,1.324-0.497c0.503,0.229,0.725,0.821,0.497,1.324c-3.638,8.009-12.008,7.144-17.01,6.625 c-1.408-0.146-2.738-0.283-3.308-0.134c-1.521,0.396-3.054,1.441-3.069,1.452C23.174,64.611,22.976,64.67,22.778,64.67z"/><path fill="#1f212b" d="M23.17,64.176c-0.047,0-0.094-0.006-0.142-0.021c-0.265-0.078-0.416-0.356-0.338-0.621 c1.851-6.27,6.101-11.208,11.367-13.208c4.701-1.786,9.826-1.085,14.815,2.026c0.234,0.146,0.306,0.455,0.16,0.689 c-0.146,0.233-0.454,0.305-0.689,0.16c-4.714-2.941-9.532-3.612-13.931-1.94c-4.902,1.862-9.025,6.673-10.763,12.557 C23.586,64.035,23.387,64.176,23.17,64.176z"/><path fill="#1f212b" d="M39.363,52.101c-0.255,0-0.473-0.194-0.498-0.453l-0.025-0.307 c-0.018-0.275,0.191-0.514,0.466-0.532c0.269-0.014,0.514,0.19,0.532,0.466l0.023,0.279c0.025,0.275-0.176,0.519-0.451,0.545 C39.395,52.101,39.379,52.101,39.363,52.101z"/><path fill="#1f212b" d="M28.651,61.915c-0.16,0-0.317-0.076-0.414-0.218c-0.156-0.229-0.097-0.54,0.131-0.695 c2.142-1.46,4.21-1.585,6.036-1.695c1.893-0.115,3.387-0.205,4.4-1.78c0.676-1.051,0.529-2.518,0.287-4.187 c-0.04-0.273,0.149-0.527,0.422-0.567c0.273-0.047,0.527,0.149,0.567,0.422c0.222,1.524,0.499,3.421-0.435,4.872 c-1.287,2.001-3.178,2.116-5.181,2.237c-1.696,0.103-3.619,0.219-5.532,1.523C28.846,61.887,28.748,61.915,28.651,61.915z"/><path fill="#b77748" d="M70.465,82.368c-8.276-11.157-19.264-6.194-21.247-12.979c-1.584-9.854,2.016-16.424,4.381-22.004 c2.052-4.842,3.584-15.332-2.629-21.46l-1.838,1.883c7.093,15.032-7.141,20.457-5.988,41.404 c-1.85,7.009-12.971,1.917-21.307,13.156c7.137-7.03,21.852-3.818,24.314-8.953C48.613,78.551,63.328,75.338,70.465,82.368z"/><path fill="#1f212b" d="M70.465,83.368c-0.254,0-0.508-0.097-0.702-0.288c-3.537-3.484-9.188-4.305-14.175-5.03 c-4.011-0.583-7.565-1.1-9.438-2.946c-1.873,1.847-5.427,2.363-9.438,2.946c-4.986,0.725-10.638,1.546-14.175,5.03 c-0.373,0.366-0.964,0.385-1.358,0.042c-0.394-0.343-0.458-0.931-0.147-1.351c4.738-6.387,10.477-7.774,14.668-8.788 c3.724-0.9,5.732-1.491,6.435-3.883c-0.509-9.879,2.294-16.296,4.77-21.962c2.751-6.297,4.924-11.271,1.321-18.905 c-0.178-0.378-0.103-0.826,0.188-1.125l1.838-1.883c0.186-0.19,0.44-0.299,0.707-0.301c0.271,0.027,0.522,0.102,0.711,0.288 c6.421,6.333,5.221,16.962,2.848,22.562c-0.256,0.605-0.527,1.221-0.804,1.852c-2.28,5.19-4.864,11.072-3.52,19.54 c0.719,2.359,2.703,2.939,6.416,3.832c4.186,1.006,9.917,2.385,14.657,8.774c0.311,0.419,0.247,1.008-0.147,1.351 C70.932,83.287,70.698,83.368,70.465,83.368z M50.326,28.017c3.576,8.104,1.178,13.594-1.587,19.924 c-2.399,5.493-5.119,11.718-4.596,21.216c0.006,0.104-0.005,0.209-0.032,0.311c-0.999,3.784-4.215,4.561-7.939,5.461 c-2.286,0.553-4.883,1.18-7.479,2.627c2.544-0.73,5.218-1.119,7.733-1.485c4.235-0.615,7.893-1.147,8.823-3.089 c0.167-0.347,0.517-0.567,0.902-0.567s0.735,0.221,0.902,0.567c0.931,1.942,4.588,2.474,8.823,3.089 c2.513,0.365,5.186,0.753,7.728,1.483c-2.59-1.441-5.181-2.064-7.461-2.612c-3.662-0.88-6.824-1.641-7.885-5.273 c-0.012-0.04-0.021-0.081-0.027-0.122c-1.46-9.084,1.375-15.539,3.653-20.725c0.273-0.623,0.541-1.231,0.793-1.828 c1.99-4.694,3.159-13.935-1.724-19.622L50.326,28.017z"/><path fill="#1f212b" d="M30.979,87.117c-0.488,0-0.915-0.358-0.988-0.855c-0.269-1.833-0.548-5.362,0.595-8.398 c0.195-0.517,0.772-0.778,1.289-0.583s0.778,0.772,0.583,1.289c-1.022,2.713-0.682,6.082-0.489,7.403 c0.08,0.546-0.298,1.054-0.844,1.134C31.076,87.114,31.027,87.117,30.979,87.117z"/><path fill="#1f212b" d="M29.735,76.553c-0.235,0-0.47-0.083-0.658-0.247c-0.397-0.247-2.825-1.099-4.818-0.875 c-0.552,0.052-1.043-0.336-1.103-0.885c-0.06-0.549,0.336-1.043,0.885-1.103c2.555-0.279,5.767,0.771,6.4,1.403 c0.391,0.39,0.391,1.023,0.001,1.414C30.248,76.456,29.992,76.553,29.735,76.553z M29.029,76.261 c0.009,0.009,0.02,0.02,0.032,0.031C29.05,76.281,29.039,76.271,29.029,76.261z"/><path fill="#1f212b" d="M34.204,83.368c-0.276,0-0.55-0.113-0.748-0.336c-0.83-0.934-1.722-1.476-2.65-1.611 c-0.546-0.08-0.925-0.587-0.846-1.134c0.08-0.547,0.584-0.922,1.134-0.846c1.408,0.205,2.706,0.966,3.857,2.262 c0.367,0.413,0.33,1.045-0.083,1.412C34.677,83.285,34.44,83.368,34.204,83.368z"/><path fill="#1f212b" d="M57.756,88.245c-0.207,0-0.415-0.064-0.594-0.196c-0.444-0.329-0.537-0.955-0.208-1.399 c1.451-1.959,2.909-4.983,1.616-8.267c-0.203-0.514,0.05-1.095,0.563-1.297c0.517-0.205,1.095,0.05,1.297,0.563 c1.272,3.228,0.608,6.847-1.869,10.19C58.364,88.104,58.062,88.245,57.756,88.245z"/><path fill="#1f212b" d="M73.266,80.989c-0.209,0-0.42-0.065-0.6-0.201c-2.117-1.591-4.55-2.31-7.434-2.194 c-0.537,0.022-1.017-0.408-1.039-0.959c-0.022-0.552,0.408-1.017,0.959-1.039c3.319-0.13,6.25,0.741,8.714,2.593 c0.442,0.332,0.531,0.958,0.199,1.4C73.87,80.852,73.57,80.989,73.266,80.989z"/><path fill="#1f212b" d="M56.939,84.175c-0.476,0-0.898-0.341-0.984-0.826c-0.096-0.544,0.267-1.063,0.811-1.159 c1.075-0.19,2.049-0.886,2.368-1.691c0.203-0.513,0.782-0.765,1.298-0.562c0.513,0.203,0.765,0.784,0.562,1.298 c-0.579,1.462-2.101,2.61-3.878,2.925C57.055,84.17,56.997,84.175,56.939,84.175z"/><path fill="#1f212b" d="M25.044,83.671c-0.422,0-0.815-0.27-0.952-0.693c-0.388-1.2-0.359-2.079-0.198-3.03 c0.092-0.544,0.604-0.911,1.153-0.818c0.544,0.092,0.911,0.608,0.818,1.153c-0.124,0.73-0.138,1.252,0.13,2.08 c0.17,0.526-0.119,1.089-0.644,1.259C25.249,83.655,25.146,83.671,25.044,83.671z"/><path fill="#1f212b" d="M78.161,66.032c-0.299,0-0.589-0.134-0.782-0.377c-0.01-0.012-1.128-1.391-2.632-2.075 c-2.271-1.032-3.833-0.458-5.81,0.272c-1.378,0.508-2.94,1.084-4.894,1.126c-12.093,0.217-13.398-11.917-13.41-12.041 c-0.02-0.204,0.023-0.409,0.124-0.587c2.767-4.921,8.621-7.002,14.912-5.305c6.826,1.843,13.645,8.125,13.492,18.002 c-0.007,0.422-0.278,0.795-0.677,0.931C78.378,66.015,78.269,66.032,78.161,66.032z M52.664,53.049 c0.265,1.762,2.017,10.133,11.337,9.93c1.619-0.034,2.954-0.526,4.245-1.003c2.12-0.781,4.311-1.588,7.329-0.216 c0.539,0.245,1.033,0.551,1.466,0.868C76.16,55.2,70.657,50.464,65.148,48.977C60.948,47.843,55.509,48.337,52.664,53.049z"/><path fill="#1f212b" d="M77.984,65.327c-0.226,0-0.431-0.154-0.486-0.384c-1.153-4.843-4.385-8.818-9.102-11.192 c-5.131-2.582-11.198-2.836-16.231-0.682c-0.253,0.108-0.548-0.008-0.656-0.263c-0.109-0.254,0.009-0.548,0.263-0.656 c5.301-2.27,11.684-2.004,17.074,0.708c4.984,2.509,8.403,6.718,9.625,11.854c0.064,0.269-0.102,0.538-0.371,0.602 C78.062,65.322,78.023,65.327,77.984,65.327z"/><path fill="#1f212b" d="M63.288,64.064c-0.087,0-0.175-0.022-0.255-0.07c-0.237-0.141-0.315-0.448-0.174-0.686 c0.277-0.465,0.721-0.82,1.191-1.196c0.898-0.719,1.827-1.462,1.975-3.126c0.024-0.274,0.264-0.478,0.542-0.454 c0.275,0.024,0.478,0.267,0.454,0.542c-0.186,2.089-1.434,3.088-2.346,3.818c-0.415,0.332-0.772,0.618-0.957,0.927 C63.625,63.977,63.458,64.064,63.288,64.064z"/><path fill="#1f212b" d="M66.469,57.916c-0.259,0-0.478-0.199-0.498-0.461c-0.095-1.233,0.055-2.216,0.459-3.005 c0.126-0.247,0.429-0.341,0.673-0.218c0.246,0.126,0.343,0.427,0.218,0.673c-0.318,0.621-0.433,1.43-0.353,2.473 c0.021,0.275-0.185,0.516-0.46,0.537C66.495,57.916,66.482,57.916,66.469,57.916z"/><path fill="#1f212b" d="M73.931,53.811c-0.038,0-0.076-0.004-0.115-0.013c-2.262-0.53-3.991-0.562-5.142-0.098 c-0.257,0.103-0.548-0.02-0.651-0.276c-0.104-0.256,0.02-0.547,0.276-0.651c1.344-0.545,3.277-0.527,5.746,0.051 c0.269,0.063,0.436,0.332,0.373,0.601C74.363,53.655,74.158,53.811,73.931,53.811z"/><path fill="#ead032" d="M40.791,12.756c-4.984,0.072-9.352,3.749-10.284,8.646c-0.394,2.071-0.171,4.09,0.528,5.886 c1.155,2.97,2.158,5.997,2.634,9.148l0.154,1.019c-0.952,0.493-1.56,1.166-1.635,1.955c-0.18,1.889,2.738,3.711,6.516,4.07 c3.778,0.359,6.986-0.881,7.166-2.77c0.056-0.588-0.189-1.169-0.665-1.701l0.621-1.751c1.016-2.864,2.509-5.514,4.151-8.072 c0.888-1.383,1.469-2.992,1.636-4.74C52.212,18.181,47.266,12.663,40.791,12.756z"/><path fill="#1f212b" d="M40.035,44.545c-0.462,0-0.938-0.022-1.426-0.069c-1.979-0.188-3.817-0.759-5.177-1.609 c-1.569-0.98-2.364-2.241-2.24-3.552c0.086-0.909,0.627-1.733,1.542-2.371l-0.054-0.36c-0.506-3.348-1.644-6.534-2.578-8.934 c-0.792-2.036-0.992-4.261-0.578-6.436c1.028-5.401,5.76-9.379,11.252-9.458c3.351-0.016,6.544,1.322,8.79,3.757 c2.249,2.438,3.357,5.729,3.042,9.028c-0.176,1.843-0.795,3.637-1.79,5.186c-1.947,3.032-3.196,5.458-4.05,7.865l-0.439,1.239 c0.416,0.628,0.6,1.301,0.537,1.974C46.652,43.048,43.811,44.545,40.035,44.545z M40.791,12.756l0.014,1 c-4.473,0.064-8.478,3.432-9.315,7.833c-0.343,1.805-0.178,3.651,0.478,5.337c0.971,2.497,2.155,5.817,2.691,9.361l0.154,1.02 c0.064,0.423-0.148,0.84-0.529,1.037c-0.661,0.343-1.062,0.766-1.099,1.162c-0.048,0.502,0.441,1.125,1.308,1.667 c1.085,0.678,2.655,1.157,4.307,1.314c3.568,0.336,5.981-0.881,6.076-1.87c0.034-0.355-0.207-0.708-0.415-0.94 c-0.244-0.272-0.319-0.656-0.197-1.001l0.621-1.751c0.907-2.557,2.218-5.11,4.252-8.277c0.835-1.3,1.333-2.745,1.481-4.295 c0.262-2.734-0.657-5.461-2.521-7.482c-1.889-2.048-4.454-3.187-7.292-3.113L40.791,12.756z"/><path fill="#f290b9" d="M40.766,42.892c-0.49,0.055-0.997,0.075-1.518,0.054c-2.92-0.112-5.038-1.382-6.097-2.414 c-0.34-0.332-0.359-1.085-0.053-1.393c0.747-0.751,2.149-1.643,4.328-1.889c0.49-0.055,0.997-0.075,1.518-0.054 c2.881,0.111,4.982,1.349,6.054,2.374c0.362,0.345,0.417,1.11,0.094,1.435C44.344,41.756,42.942,42.647,40.766,42.892z"/><path fill="#1f212b" d="M40.035,44.545c-0.462,0-0.938-0.022-1.426-0.069c-1.979-0.188-3.817-0.759-5.177-1.609 c-1.569-0.98-2.364-2.241-2.24-3.552c0.086-0.909,0.627-1.733,1.542-2.371l-0.054-0.36c-0.506-3.348-1.644-6.534-2.578-8.934 c-0.792-2.036-0.992-4.261-0.578-6.436c1.028-5.401,5.76-9.379,11.252-9.458c3.351-0.016,6.544,1.322,8.79,3.757 c2.249,2.438,3.357,5.729,3.042,9.028c-0.176,1.843-0.795,3.637-1.79,5.186c-1.947,3.032-3.196,5.458-4.05,7.865l-0.439,1.239 c0.416,0.628,0.6,1.301,0.537,1.974C46.652,43.048,43.811,44.545,40.035,44.545z M40.791,12.756l0.014,1 c-4.473,0.064-8.478,3.432-9.315,7.833c-0.343,1.805-0.178,3.651,0.478,5.337c0.971,2.497,2.155,5.817,2.691,9.361l0.154,1.02 c0.064,0.423-0.148,0.84-0.529,1.037c-0.661,0.343-1.062,0.766-1.099,1.162c-0.048,0.502,0.441,1.125,1.308,1.667 c1.085,0.678,2.655,1.157,4.307,1.314c3.568,0.336,5.981-0.881,6.076-1.87c0.034-0.355-0.207-0.708-0.415-0.94 c-0.244-0.272-0.319-0.656-0.197-1.001l0.621-1.751c0.907-2.557,2.218-5.11,4.252-8.277c0.835-1.3,1.333-2.745,1.481-4.295 c0.262-2.734-0.657-5.461-2.521-7.482c-1.889-2.048-4.454-3.187-7.292-3.113L40.791,12.756z"/><path fill="#1f212b" d="M44.708,39.67c-0.134,0-0.269-0.054-0.367-0.161c-0.944-1.021-2.871-1.782-5.027-1.987 c-2.012-0.191-3.917,0.128-5.088,0.854c-0.234,0.145-0.543,0.073-0.688-0.161c-0.146-0.235-0.073-0.543,0.161-0.688 c1.352-0.837,3.487-1.212,5.71-1c2.427,0.23,4.545,1.091,5.667,2.304c0.188,0.203,0.175,0.519-0.028,0.707 C44.951,39.626,44.83,39.67,44.708,39.67z"/><ellipse cx="35.247" cy="27.809" fill="#1f212b" rx=".722" ry="1.011"/><g><ellipse cx="45.63" cy="27.809" fill="#1f212b" rx=".722" ry="1.011"/></g><g><path fill="#1f212b" d="M39.916,41.112c-0.279,0-0.565-0.013-0.857-0.041c-1.635-0.155-2.745-0.686-3.275-1.091 c-0.17-0.13-0.133-0.396,0.058-0.492c0.467-0.235,1.313-0.493,2.553-0.493c0.279,0,0.565,0.013,0.857,0.041 c1.613,0.153,2.716,0.672,3.254,1.075c0.182,0.136,0.164,0.407-0.038,0.509C42,40.854,41.155,41.112,39.916,41.112z"/></g></svg>