<svg xmlns="http://www.w3.org/2000/svg" viewBox="0 0 100 100"><path fill="#fef6aa" d="M39.228,80.835c-1.74,1.438-24.115-15.059-17.186-20.788S40.967,79.396,39.228,80.835z"/><path fill="#1f212b" d="M38.909,81.921c-0.438,0-0.886-0.138-1.243-0.271c-4.469-1.664-16.746-11.185-17.865-17.816 c-0.313-1.855,0.241-3.431,1.604-4.558c1.362-1.126,3.012-1.375,4.777-0.719c6.304,2.347,13.347,16.196,14.14,20.898 c0.112,0.667,0.188,1.617-0.458,2.15l0,0C39.583,81.838,39.249,81.921,38.909,81.921z M24.303,60.195 c-0.742,0-1.255,0.317-1.624,0.622c-0.651,0.539-1.425,1.511-0.626,3.719c2.2,6.075,13.278,14.196,16.323,15.269 c-0.48-3.191-6.373-15.599-11.928-18.902C25.573,60.381,24.87,60.195,24.303,60.195z"/><path fill="#a0d2a1" d="M37.929,46.924L37.929,46.924c2.31-4.072,6.63-6.588,11.312-6.588h1.518 c4.682,0,9.002,2.516,11.312,6.588l0,0c1.638,2.888,5.629,3.367,7.876,0.922C73.118,44.395,75,40.096,75,35.434 c0-11.371-11.193-20.588-25-20.588s-25,9.218-25,20.588c0,4.662,1.882,8.961,5.053,12.412C32.3,50.291,36.291,49.812,37.929,46.924 z"/><path fill="#a0d2a1" d="M74,52.777c0-10.902-10.745-19.74-24-19.74s-24,8.838-24,19.74c0,4.825,2.107,9.243,5.602,12.672 c-0.446,1.31-0.704,2.682-0.704,4.107c0,8.529,8.552,15.443,19.102,15.443s19.102-6.914,19.102-15.443 c0-1.424-0.258-2.797-0.704-4.107C71.893,62.02,74,57.601,74,52.777z"/><polygon fill="#444445" points="33.553,48.953 38.641,59.197 62.315,57.25 66.936,49.061 62.436,47.766 48.864,48.05 37.68,47.766"/><ellipse cx="49.809" cy="62.83" fill="#fef6aa" rx="14.691" ry="9.074"/><ellipse cx="49.809" cy="75.713" fill="#fef6aa" rx="12.876" ry="8.713"/><path fill="#1f212b" d="M37.722,79c-0.194,0-0.379-0.114-0.46-0.305c-0.393-0.924-0.592-1.887-0.592-2.862 c0-1.281,0.339-2.526,1.007-3.7c0.136-0.241,0.44-0.325,0.682-0.188c0.24,0.137,0.324,0.442,0.188,0.682 c-0.581,1.022-0.876,2.1-0.876,3.206c0,0.84,0.172,1.671,0.512,2.471c0.108,0.254-0.011,0.547-0.265,0.655 C37.854,78.988,37.787,79,37.722,79z"/><path fill="#1f212b" d="M62.278,79.001c-0.065,0-0.132-0.013-0.195-0.04c-0.254-0.108-0.373-0.401-0.265-0.655 c0.34-0.8,0.512-1.631,0.512-2.472c0-1.167-0.328-2.302-0.974-3.371c-0.143-0.236-0.067-0.544,0.169-0.687 c0.236-0.142,0.544-0.067,0.687,0.169c0.742,1.228,1.118,2.536,1.118,3.888c0,0.975-0.199,1.938-0.592,2.862 C62.657,78.887,62.473,79.001,62.278,79.001z"/><path fill="#1f212b" d="M49.999,72.233c-7.742,0-15.113-3.05-19.716-8.16l0.742-0.669c4.417,4.902,11.51,7.829,18.974,7.829 c7.02,0,13.618-2.523,18.104-6.922l0.699,0.714C64.132,69.605,57.278,72.233,49.999,72.233z"/><path fill="#1f212b" d="M63.198,66.787c-0.104,0-0.21-0.033-0.3-0.1c-0.221-0.166-0.266-0.479-0.101-0.7 c0.821-1.095,1.237-2.26,1.237-3.464c0-4.67-6.296-8.47-14.035-8.47s-14.035,3.8-14.035,8.47c0,1.202,0.415,2.366,1.232,3.458 c0.165,0.221,0.12,0.535-0.101,0.7c-0.22,0.166-0.534,0.12-0.7-0.101c-0.95-1.269-1.432-2.634-1.432-4.057 c0-5.222,6.745-9.47,15.035-9.47s15.035,4.249,15.035,9.47c0,1.425-0.483,2.792-1.437,4.063 C63.5,66.718,63.35,66.787,63.198,66.787z"/><circle cx="39" cy="69" r="3.5" fill="#fef6aa"/><path fill="#1f212b" d="M39,73c-2.206,0-4-1.794-4-4s1.794-4,4-4s4,1.794,4,4S41.206,73,39,73z M39,66c-1.654,0-3,1.346-3,3 s1.346,3,3,3s3-1.346,3-3S40.654,66,39,66z"/><circle cx="61" cy="69" r="3.5" fill="#fef6aa"/><path fill="#1f212b" d="M61,73c-2.206,0-4-1.794-4-4s1.794-4,4-4s4,1.794,4,4S63.206,73,61,73z M61,66c-1.654,0-3,1.346-3,3 s1.346,3,3,3s3-1.346,3-3S62.654,66,61,66z"/><ellipse cx="50" cy="48.074" fill="#fef6aa" rx="12.131" ry="8.33"/><ellipse cx="68" cy="30.777" fill="#f9e65c" rx="6.038" ry="10.991" transform="rotate(-25.973 67.996 30.78)"/><path fill="#1f212b" d="M71.238,41.511c-1.229,0-2.585-0.496-3.962-1.469c-2.001-1.415-3.832-3.688-5.153-6.402l0,0 c-1.322-2.714-1.984-5.557-1.863-8.005c0.125-2.556,1.087-4.398,2.709-5.188c1.621-0.789,3.663-0.412,5.755,1.066 c2.001,1.415,3.832,3.688,5.153,6.402c1.322,2.713,1.984,5.556,1.863,8.004c-0.125,2.557-1.087,4.399-2.709,5.189 C72.478,41.378,71.875,41.511,71.238,41.511z M63.021,33.203c1.25,2.564,2.966,4.704,4.832,6.023 c1.779,1.257,3.462,1.607,4.74,0.983c1.278-0.623,2.041-2.163,2.148-4.338c0.111-2.283-0.515-4.953-1.764-7.518 c-1.25-2.565-2.966-4.704-4.832-6.023c-1.779-1.256-3.46-1.607-4.74-0.983c-1.278,0.623-2.041,2.163-2.148,4.338 C61.146,27.967,61.772,30.637,63.021,33.203L63.021,33.203z"/><path fill="#444445" d="M74.97,34.182c-0.317,1.937-1.187,3.379-2.547,3.89c-2.822,1.06-6.69-2.289-8.638-7.479 c-0.753-2.006-1.109-3.994-1.1-5.738l7.294-1.983l3.234,3.83L74.97,34.182z"/><path fill="#1f212b" d="M71.319,38.77c-1.229,0-2.563-0.585-3.87-1.716c-1.693-1.466-3.161-3.698-4.132-6.285 c-0.751-2-1.143-4.046-1.132-5.917c0.001-0.225,0.152-0.42,0.369-0.479l7.293-1.982c0.186-0.052,0.387,0.01,0.513,0.16l3.234,3.83 c0.051,0.061,0.087,0.132,0.104,0.208l1.758,7.48c0.016,0.064,0.018,0.13,0.007,0.195c-0.36,2.2-1.377,3.718-2.864,4.277 C72.19,38.694,71.762,38.77,71.319,38.77z M63.189,25.236c0.041,1.646,0.406,3.429,1.063,5.181 c0.914,2.433,2.281,4.522,3.851,5.881c1.488,1.287,2.958,1.751,4.145,1.306c1.117-0.419,1.901-1.627,2.213-3.405l-1.707-7.266 l-2.952-3.495L63.189,25.236z"/><ellipse cx="32" cy="30.777" fill="#f9e65c" rx="10.991" ry="6.038" transform="rotate(-64.03 32 30.779)"/><path fill="#1f212b" d="M28.762,41.511c-0.637,0-1.239-0.133-1.793-0.403c-1.622-0.79-2.584-2.632-2.709-5.189 c-0.121-2.448,0.541-5.291,1.863-8.004c1.321-2.714,3.152-4.988,5.153-6.402c2.092-1.478,4.134-1.855,5.755-1.066 c1.622,0.79,2.584,2.632,2.709,5.188c0.121,2.448-0.541,5.291-1.863,8.005l0,0c-1.321,2.714-3.152,4.987-5.153,6.402 C31.347,41.015,29.99,41.511,28.762,41.511z M35.235,21.044c-1.021,0-2.179,0.435-3.382,1.285 c-1.866,1.319-3.582,3.458-4.832,6.023c-1.249,2.565-1.875,5.235-1.764,7.518c0.107,2.175,0.87,3.716,2.148,4.338 c1.278,0.624,2.961,0.274,4.74-0.983c1.866-1.319,3.582-3.458,4.832-6.023l0,0c1.249-2.565,1.875-5.235,1.764-7.518 c-0.107-2.175-0.87-3.716-2.148-4.338C36.18,21.145,35.724,21.044,35.235,21.044z M37.428,33.421h0.01H37.428z"/><path fill="#444445" d="M25.03,34.182c0.317,1.937,1.187,3.379,2.547,3.89c2.822,1.06,6.69-2.289,8.638-7.479 c0.753-2.006,1.109-3.994,1.1-5.738l-7.368-1.515l-2.521,3.032L25.03,34.182z"/><path fill="#1f212b" d="M28.681,38.77c-0.442,0-0.871-0.076-1.28-0.229c-1.487-0.559-2.504-2.077-2.864-4.277 c-0.013-0.076-0.008-0.154,0.016-0.228l2.396-7.81c0.019-0.063,0.051-0.122,0.093-0.173l2.521-3.032 c0.119-0.141,0.306-0.206,0.485-0.17l7.367,1.515c0.231,0.047,0.398,0.25,0.399,0.487c0.011,1.871-0.381,3.917-1.132,5.917 c-0.971,2.587-2.438,4.819-4.132,6.285C31.244,38.185,29.91,38.77,28.681,38.77z M25.542,34.216c0.313,1.769,1.096,2.97,2.21,3.388 c1.186,0.446,2.656-0.018,4.145-1.306c1.569-1.359,2.937-3.448,3.851-5.881c0.654-1.743,1.019-3.516,1.063-5.156l-6.671-1.371 l-2.266,2.725L25.542,34.216z"/><path fill="#1f212b" d="M55.916,46.22c-0.077,0-0.154-0.018-0.227-0.054c-0.204-0.104-0.415-0.202-0.633-0.294 c-0.255-0.108-0.373-0.401-0.265-0.656c0.108-0.254,0.403-0.373,0.655-0.264c0.239,0.102,0.472,0.209,0.695,0.323 c0.246,0.125,0.345,0.427,0.219,0.673C56.273,46.12,56.098,46.22,55.916,46.22z"/><path fill="#1f212b" d="M50,56.904c-5.496,0-9.968-2.916-9.968-6.5s4.472-6.5,9.968-6.5c0.586,0,1.175,0.033,1.748,0.099 c0.274,0.031,0.472,0.279,0.44,0.553c-0.031,0.275-0.281,0.472-0.554,0.44c-0.536-0.061-1.086-0.092-1.635-0.092 c-4.945,0-8.968,2.467-8.968,5.5s4.022,5.5,8.968,5.5s8.968-2.467,8.968-5.5c0-1.209-0.642-2.362-1.854-3.333 c-0.216-0.173-0.25-0.487-0.078-0.703c0.174-0.216,0.488-0.25,0.703-0.078c1.438,1.151,2.229,2.612,2.229,4.114 C59.968,53.988,55.496,56.904,50,56.904z"/><ellipse cx="35.408" cy="27.352" fill="#eeecd9" rx="2.463" ry="1.667" transform="rotate(-70.471 35.406 27.351)"/><path fill="#1f212b" d="M34.971,30.239c-0.189,0-0.376-0.031-0.554-0.094c-0.572-0.203-1.005-0.72-1.187-1.419 c-0.166-0.639-0.118-1.384,0.135-2.097c0.556-1.565,1.885-2.475,3.033-2.068c1.146,0.407,1.607,1.952,1.051,3.517 c-0.252,0.713-0.685,1.322-1.216,1.713C35.832,30.085,35.393,30.239,34.971,30.239z M35.833,25.463c-0.559,0-1.213,0.622-1.525,1.5 c-0.184,0.519-0.224,1.07-0.109,1.512c0.058,0.219,0.204,0.604,0.553,0.728c0.353,0.124,0.708-0.083,0.889-0.217 c0.367-0.271,0.684-0.724,0.867-1.243c0,0,0,0,0.001,0c0.35-0.985,0.143-2.032-0.443-2.24 C35.989,25.476,35.912,25.463,35.833,25.463z"/><g><ellipse cx="64.592" cy="27.352" fill="#eeecd9" rx="1.667" ry="2.463" transform="rotate(-19.529 64.592 27.352)"/><path fill="#1f212b" d="M65.029,30.239c-0.422,0-0.861-0.153-1.263-0.449c-0.531-0.392-0.964-1-1.216-1.713l0,0 c-0.557-1.565-0.095-3.11,1.051-3.517c1.146-0.407,2.478,0.504,3.032,2.068c0.254,0.713,0.302,1.458,0.136,2.098 c-0.182,0.699-0.614,1.216-1.187,1.419C65.405,30.208,65.219,30.239,65.029,30.239z M64.167,25.463 c-0.079,0-0.157,0.013-0.231,0.039c-0.586,0.208-0.793,1.255-0.443,2.24c0.001,0,0.001,0,0.001,0 c0.184,0.519,0.5,0.972,0.867,1.243c0.183,0.134,0.542,0.341,0.889,0.217c0.349-0.124,0.495-0.509,0.553-0.728 c0.114-0.442,0.074-0.993-0.11-1.512C65.38,26.085,64.726,25.463,64.167,25.463z"/></g><g><path fill="#1f212b" d="M37.474,58.28c-0.233,0-0.442-0.165-0.489-0.402c-0.618-3.11-2.208-6.077-4.597-8.58 c-0.191-0.2-0.184-0.516,0.016-0.707c0.201-0.19,0.517-0.184,0.707,0.017c2.521,2.64,4.199,5.778,4.854,9.075 c0.054,0.271-0.122,0.534-0.393,0.588C37.539,58.277,37.507,58.28,37.474,58.28z"/><path fill="#1f212b" d="M62.526,58.28c-0.033,0-0.065-0.003-0.099-0.01c-0.271-0.054-0.446-0.317-0.393-0.588 c0.655-3.296,2.334-6.435,4.854-9.075c0.189-0.2,0.506-0.207,0.707-0.017c0.199,0.191,0.207,0.507,0.016,0.707 c-2.389,2.503-3.979,5.47-4.597,8.58C62.969,58.116,62.76,58.28,62.526,58.28z"/></g><g><path fill="#1f212b" d="M33.916,49.562c-1.476,0-2.863-0.604-3.877-1.708c-0.85-0.925-1.61-1.915-2.259-2.942 c-0.147-0.233-0.077-0.542,0.156-0.69c0.229-0.147,0.54-0.079,0.689,0.156c0.617,0.977,1.34,1.919,2.149,2.8 c0.938,1.019,2.263,1.517,3.649,1.355c1.396-0.159,2.592-0.95,3.284-2.169c2.353-4.147,6.776-6.724,11.545-6.724h1.49 c4.769,0,9.192,2.577,11.545,6.724c0.692,1.219,1.889,2.01,3.284,2.169c1.388,0.162,2.713-0.336,3.649-1.355 c0.961-1.046,1.797-2.173,2.484-3.349c0.139-0.24,0.446-0.319,0.684-0.179c0.239,0.139,0.319,0.446,0.18,0.684 c-0.723,1.237-1.602,2.421-2.611,3.521c-1.155,1.257-2.794,1.867-4.499,1.672c-1.717-0.196-3.189-1.169-4.04-2.669 c-2.176-3.835-6.267-6.217-10.676-6.217h-1.49c-4.409,0-8.5,2.382-10.676,6.217c-0.851,1.5-2.323,2.474-4.04,2.669 C34.329,49.55,34.121,49.562,33.916,49.562z"/></g><g><path fill="#1f212b" d="M50,56.904c-6.25,0-11.637-4.001-12.81-9.514c-0.058-0.27,0.115-0.536,0.385-0.593 c0.268-0.055,0.537,0.115,0.594,0.385c1.075,5.054,6.051,8.722,11.831,8.722c5.768,0,10.741-3.659,11.826-8.7 c0.059-0.271,0.321-0.44,0.595-0.384c0.27,0.058,0.441,0.324,0.384,0.594C61.621,52.914,56.235,56.904,50,56.904z"/></g><g><path fill="#1f212b" d="M50,85.999c-11.084,0-20.102-7.376-20.102-16.443c0-1.267,0.19-2.554,0.568-3.833 C26.937,62.059,25,57.484,25,52.777c0-2.648,0.591-5.221,1.757-7.656C24.951,42.133,24,38.796,24,35.434 c0-11.904,11.663-21.588,26-21.588s26,9.685,26,21.588c0,3.362-0.951,6.699-2.757,9.687C74.409,47.556,75,50.128,75,52.777 c0,4.708-1.937,9.282-5.467,12.946c0.378,1.279,0.568,2.566,0.568,3.833C70.102,78.623,61.084,85.999,50,85.999z M50,15.846 c-13.233,0-24,8.787-24,19.588c0,3.161,0.948,6.304,2.742,9.09c0.193,0.301,0.212,0.683,0.048,1c-1.188,2.299-1.79,4.74-1.79,7.252 c0,4.356,1.883,8.603,5.303,11.958c0.274,0.27,0.37,0.672,0.246,1.037c-0.432,1.267-0.65,2.54-0.65,3.784 c0,7.964,8.12,14.443,18.102,14.443s18.102-6.479,18.102-14.443c0-1.244-0.219-2.518-0.65-3.784 c-0.124-0.364-0.028-0.767,0.246-1.037C71.117,61.38,73,57.133,73,52.777c0-2.513-0.603-4.953-1.79-7.252 c-0.164-0.318-0.146-0.7,0.048-1C73.052,41.738,74,38.595,74,35.434C74,24.633,63.233,15.846,50,15.846z"/></g><g><circle cx="38" cy="81" r="2.5" fill="#fef6aa"/><path fill="#1f212b" d="M38,84c-1.654,0-3-1.346-3-3s1.346-3,3-3s3,1.346,3,3S39.654,84,38,84z M38,79c-1.103,0-2,0.897-2,2 s0.897,2,2,2s2-0.897,2-2S39.103,79,38,79z"/></g><g><circle cx="62" cy="81" r="2.5" fill="#fef6aa"/><path fill="#1f212b" d="M62,84c-1.654,0-3-1.346-3-3s1.346-3,3-3s3,1.346,3,3S63.654,84,62,84z M62,79c-1.103,0-2,0.897-2,2 s0.897,2,2,2s2-0.897,2-2S63.103,79,62,79z"/></g><g><path fill="#f290b9" d="M71.976,19.569L71.976,19.569c-0.69-1.833-2.795-2.688-4.568-1.857l-14.554,6.825 c-1.808,0.848-3.899,0.848-5.707,0l-14.554-6.825c-1.773-0.831-3.878,0.024-4.568,1.857l0,0c-0.69,1.833,0.328,3.864,2.209,4.409 L47.5,28.976V30c0,1.381,1.119,2.5,2.5,2.5h0c1.381,0,2.5-1.119,2.5-2.5v-1.024l17.267-4.998 C71.648,23.433,72.666,21.401,71.976,19.569z"/><path fill="#1f212b" d="M50,33c-1.654,0-3-1.346-3-3v-0.648l-16.905-4.894c-1.03-0.298-1.896-1.02-2.377-1.979 s-0.539-2.084-0.161-3.087c0.377-1.003,1.163-1.81,2.156-2.214c0.993-0.403,2.121-0.375,3.092,0.081l14.554,6.825 c1.681,0.787,3.604,0.786,5.283,0l14.554-6.825c0.972-0.456,2.099-0.484,3.092-0.081c0.993,0.404,1.779,1.211,2.156,2.214l0,0 c0.378,1.003,0.319,2.128-0.161,3.087s-1.347,1.68-2.377,1.979L53,29.352V30C53,31.654,51.654,33,50,33z M31.169,17.891 c-0.364,0-0.729,0.071-1.079,0.213c-0.747,0.304-1.313,0.886-1.598,1.64s-0.241,1.566,0.119,2.287 c0.361,0.721,0.986,1.241,1.761,1.465l17.267,4.998C47.853,28.557,48,28.753,48,28.976V30c0,1.103,0.897,2,2,2s2-0.897,2-2v-1.024 c0-0.223,0.147-0.418,0.361-0.48l17.267-4.998c0.774-0.224,1.399-0.745,1.761-1.465c0.36-0.721,0.403-1.533,0.119-2.287l0,0 c-0.284-0.754-0.851-1.336-1.598-1.64c-0.745-0.303-1.559-0.284-2.291,0.06l-14.554,6.825c-1.947,0.914-4.184,0.914-6.131,0 l-14.554-6.825C31.992,17.982,31.581,17.891,31.169,17.891z"/></g></svg>