<svg xmlns="http://www.w3.org/2000/svg" viewBox="0 0 100 100"><path fill="#78ccd3" d="M42.821,62.718c-10.098,2.573-19.914,1.423-23.175-9.865c-0.382-1.321-2.492-0.745-2.494,0.631v0 c0,12.035,11.439,23.14,25.549,23.14c1.093,0,2.17-0.067,3.228-0.195"/><path fill="#d3dff1" d="M78.298,17.616c-0.643,1.71-1.018,3.7-1.018,5.832c0,3.553,1.024,6.727,2.632,8.829 c-1.607,2.102-2.632,5.276-2.632,8.829c0,2.133,0.376,4.122,1.018,5.832c-3.424-2.2-5.871-7.924-5.871-14.661 C72.427,25.54,74.874,19.816,78.298,17.616z"/><path fill="#1f212b" d="M78.298,47.938c-0.188,0-0.375-0.052-0.54-0.159c-3.846-2.471-6.331-8.556-6.331-15.502 s2.485-13.032,6.331-15.503c0.361-0.233,0.833-0.208,1.169,0.063c0.335,0.271,0.459,0.726,0.308,1.129 c-0.625,1.663-0.955,3.558-0.955,5.481c0,3.208,0.885,6.205,2.426,8.222c0.274,0.358,0.274,0.856,0,1.215 c-1.541,2.016-2.426,5.012-2.426,8.221c0,1.924,0.33,3.819,0.955,5.481c0.151,0.403,0.027,0.858-0.308,1.129 C78.744,47.864,78.521,47.938,78.298,47.938z M76.459,20.863c-1.878,2.736-3.032,6.908-3.032,11.415 c0,4.506,1.154,8.678,3.032,11.414c-0.119-0.848-0.18-1.715-0.18-2.585c0-3.338,0.87-6.507,2.405-8.829 c-1.535-2.322-2.405-5.492-2.405-8.829C76.279,22.578,76.34,21.711,76.459,20.863z"/><path fill="#d3dff1" d="M31.805,17.616c0.643,1.71,1.018,3.7,1.018,5.832c0,3.553-1.024,6.727-2.632,8.829 c1.607,2.102,2.632,5.276,2.632,8.829c0,2.133-0.376,4.122-1.018,5.832c3.424-2.2,5.871-7.924,5.871-14.661 C37.676,25.54,35.229,19.816,31.805,17.616z"/><path fill="#1f212b" d="M31.805,47.938c-0.224,0-0.446-0.075-0.629-0.222c-0.335-0.271-0.459-0.726-0.308-1.129 c0.625-1.662,0.955-3.557,0.955-5.481c0-3.209-0.885-6.205-2.426-8.221c-0.274-0.358-0.274-0.856,0-1.215 c1.541-2.017,2.426-5.013,2.426-8.222c0-1.923-0.33-3.818-0.955-5.481c-0.151-0.403-0.027-0.858,0.308-1.129 s0.807-0.296,1.169-0.063c3.846,2.471,6.331,8.556,6.331,15.503S36.19,45.309,32.345,47.78 C32.18,47.886,31.992,47.938,31.805,47.938z M31.418,32.277c1.535,2.321,2.405,5.491,2.405,8.829c0,0.871-0.061,1.737-0.18,2.585 c1.878-2.736,3.032-6.908,3.032-11.414c0-4.507-1.154-8.678-3.032-11.415c0.119,0.848,0.18,1.715,0.18,2.585 C33.823,26.786,32.953,29.956,31.418,32.277z"/><path fill="#78ccd3" d="M62.488,85c-11.311,0-20.317-9.473-19.744-20.77l0.868-17.124c-0.586-0.811-1.004-1.689-1.198-2.618 c-3.899-3.094-6.368-7.582-6.368-12.593c0-9.33,8.509-16.894,19.006-16.894s19.006,7.564,19.006,16.894 c0,5.011-2.469,9.5-6.368,12.593c-0.206,0.988-0.662,1.919-1.309,2.772l0.352,8.605l7.325,2.773l3.642,1.816 c0,0,3.301,3.702,3.301,3.911s1.848,3.72,1.848,3.72v4.33l-1.359,4.208l-6.025,5.014L66.557,85H62.488z"/><path fill="#d3dff1" d="M77.149,80.395c-0.889-0.057-1.751-0.139-2.583-0.251c-7.493-1.01-9.526-8.735-10.585-15.053 c-1.726-10.296-4.635-16.302-8.93-16.302c-5.447,0-9.862,11.285-9.862,25.206l3.334,5.227l3.669,2.459l6.726,2.996l4.127,0.318 l6.892-0.314L77.149,80.395z"/><path fill="#d3dff1" d="M44.474,73.387c-0.587,0.046-1.178,0.069-1.774,0.069c-11.753-0.586-18.367-7.334-20.813-10.449 c-0.696-0.887-1.914-1.16-2.926-0.662h0l2.719,4.264l4.599,4.359l6.89,4.203l7.319,1.453h2.851h2.87L44.474,73.387z"/><path fill="#1f212b" d="M42.701,77.623c-14.143,0-26.549-11.28-26.549-24.14c0.002-1.17,0.922-2.18,2.14-2.352 c1.085-0.152,2.021,0.427,2.314,1.444c2.637,9.128,10.023,12.217,21.967,9.173c0.532-0.137,1.079,0.187,1.216,0.722 s-0.187,1.08-0.722,1.216C30.068,67,21.638,63.349,18.685,53.131c-0.03-0.032-0.188-0.034-0.348,0.07 c-0.122,0.078-0.185,0.174-0.185,0.284c0,11.792,11.472,22.138,24.549,22.138c1.037,0,2.082-0.063,3.107-0.188 c0.541-0.066,1.046,0.324,1.113,0.872c0.066,0.548-0.324,1.047-0.873,1.113C44.944,77.555,43.818,77.623,42.701,77.623z"/><path fill="#1f212b" d="M62.569,86c-0.553,0-1-0.448-1-1s0.447-1,1-1c10.63,0,19.278-6.162,19.278-13.736 c0-6.014-5.412-11.277-13.469-13.098l-1.468-0.324c-0.539-0.119-0.88-0.653-0.761-1.192c0.119-0.539,0.648-0.881,1.192-0.761 l1.473,0.325c8.993,2.033,15.032,8.081,15.032,15.05C83.848,78.941,74.302,86,62.569,86z"/><path fill="#1f212b" d="M62.487,86c-5.748,0-11.094-2.294-15.054-6.46c-3.959-4.166-5.979-9.621-5.688-15.361l0.851-16.784 c-0.502-0.755-0.862-1.541-1.075-2.344c-4.119-3.391-6.475-8.167-6.475-13.157C35.046,22.027,44.021,14,55.052,14 s20.006,8.027,20.006,17.894c0,4.989-2.355,9.766-6.475,13.157c-0.258,0.976-0.729,1.92-1.405,2.812 c-0.332,0.439-0.96,0.527-1.4,0.194c-0.44-0.333-0.527-0.961-0.193-1.401c0.577-0.763,0.957-1.562,1.127-2.374 c0.048-0.229,0.174-0.433,0.356-0.578c3.807-3.021,5.99-7.326,5.99-11.811C73.058,23.13,64.98,16,55.052,16 s-18.006,7.13-18.006,15.894c0,4.485,2.184,8.79,5.99,11.811c0.183,0.145,0.309,0.35,0.356,0.579 c0.159,0.757,0.505,1.51,1.03,2.238c0.133,0.185,0.198,0.409,0.188,0.636l-0.867,17.124c-0.264,5.187,1.563,10.117,5.141,13.881 C52.462,81.927,57.293,84,62.487,84c0.553,0,1,0.448,1,1S63.04,86,62.487,86z"/><path fill="#1f212b" d="M66.731,56.865c-0.522,0-0.963-0.406-0.997-0.935l-0.126-2.022 c-0.031-0.518-0.146-3.857-0.228-6.619c-0.016-0.552,0.418-1.013,0.971-1.029c0.52-0.027,1.013,0.417,1.029,0.97 c0.086,2.934,0.197,6.11,0.224,6.556L67.73,55.8c0.036,0.551-0.382,1.027-0.934,1.063C66.775,56.865,66.753,56.865,66.731,56.865z"/><circle cx="55.051" cy="23.447" r="2.64" fill="#d3dff1"/><path fill="#1f212b" d="M55.052,26.587c-1.731,0-3.14-1.408-3.14-3.14s1.408-3.14,3.14-3.14s3.14,1.409,3.14,3.14 S56.783,26.587,55.052,26.587z M55.052,21.307c-1.18,0-2.14,0.96-2.14,2.14c0,1.18,0.96,2.14,2.14,2.14s2.14-0.96,2.14-2.14 C57.191,22.267,56.231,21.307,55.052,21.307z"/><ellipse cx="42.909" cy="30.236" fill="#444445" rx="6.47" ry="2.561" transform="rotate(-83.944 42.91 30.237)"/><path fill="#1f212b" d="M32.143,71.467c-0.069,0-0.139-0.014-0.205-0.044c-5.489-2.471-8.899-6.141-10.443-8.108 c-0.552-0.705-1.503-0.917-2.312-0.522c-0.248,0.12-0.547,0.02-0.669-0.228c-0.122-0.248-0.021-0.547,0.228-0.669 c1.216-0.597,2.704-0.262,3.54,0.802c1.487,1.895,4.772,5.431,10.066,7.813c0.252,0.113,0.364,0.41,0.251,0.661 C32.516,71.358,32.333,71.467,32.143,71.467z"/><path fill="#ae5ca3" d="M45.212,32.116c-0.633,1.158-1.421,1.836-2.205,1.753c-1.533-0.163-2.469-3.175-2.092-6.728 l-0.553,2.825l-0.076,2.311l0.417,1.819l0.447,1.372l0.779,1.121h0.981l0.864-0.875l0.797-1.481L45.212,32.116z"/><path fill="#d3dff1" d="M45.3,31.826c-1.876-0.443-3.058-3.633-2.665-7.336c0.029-0.271,0.065-0.538,0.109-0.8l1.256,0.241 l0.725,1.014l0.423,1.491l0.417,1.224L45.3,31.826z"/><path fill="#1f212b" d="M42.7,73.956c-2.791-0.139-5.468-0.627-7.979-1.453c-0.263-0.086-0.405-0.369-0.318-0.631 c0.085-0.262,0.368-0.405,0.631-0.319c2.427,0.798,5.015,1.27,7.691,1.403c0.557,0,1.14-0.023,1.71-0.068 c0.268-0.021,0.516,0.183,0.537,0.459c0.022,0.275-0.184,0.516-0.459,0.538C43.917,73.932,43.307,73.956,42.7,73.956z"/><path fill="#1f212b" d="M42.337,37.176c-0.055,0-0.108-0.003-0.163-0.009c-0.898-0.095-1.619-0.961-2.03-2.438 c-0.368-1.326-0.467-3.036-0.278-4.815c0.355-3.361,1.784-6.834,3.778-6.608c1.977,0.21,2.665,3.894,2.31,7.254l0,0 c-0.188,1.78-0.645,3.431-1.283,4.649C44.002,36.484,43.179,37.176,42.337,37.176z M43.485,24.296 c-0.861,0-2.243,2.119-2.626,5.722c-0.176,1.658-0.088,3.235,0.248,4.442c0.284,1.025,0.723,1.665,1.172,1.712 c0.468,0.043,1.013-0.487,1.505-1.428c0.582-1.11,0.999-2.634,1.175-4.291c0.389-3.678-0.565-6.064-1.421-6.155 C43.521,24.297,43.503,24.296,43.485,24.296z"/><path fill="#1f212b" d="M45.185,32.313c-2.159-0.51-3.469-3.896-3.047-7.875c0.016-0.141,0.031-0.278,0.051-0.415l0.99,0.14 c-0.018,0.126-0.033,0.253-0.047,0.382c-0.356,3.365,0.667,6.414,2.283,6.795L45.185,32.313z"/><path fill="#d3dff1" d="M46.884,38.487c-2.242,0.54-3.957,2.494-3.975,4.778c0,0.015,0,0.03,0,0.046 c0,4.585,5.436,8.302,12.143,8.302s12.143-3.717,12.143-8.302c0-0.015,0-0.03,0-0.046c-0.018-2.284-1.733-4.239-3.975-4.778 c-2.517-0.606-5.273-0.943-8.167-0.943C52.157,37.544,49.401,37.881,46.884,38.487z"/><path fill="#1f212b" d="M55.052,52.112c-6.971,0-12.643-3.948-12.643-8.801c0.02-2.495,1.853-4.707,4.357-5.311l0,0 c5.276-1.27,11.297-1.269,16.569,0c2.506,0.604,4.339,2.816,4.358,5.261C67.694,48.164,62.022,52.112,55.052,52.112z M47.001,38.973c-2.065,0.497-3.575,2.304-3.592,4.296c0,4.344,5.223,7.843,11.643,7.843s11.643-3.5,11.643-7.801 c-0.017-2.034-1.527-3.841-3.593-4.338C57.982,37.74,52.122,37.74,47.001,38.973L47.001,38.973z"/><path fill="#1f212b" d="M75.779,73.756c-0.037,0-0.076-0.004-0.114-0.013c-0.832-0.196-1.642-0.493-2.407-0.882 c-0.246-0.125-0.345-0.426-0.219-0.672c0.125-0.248,0.429-0.342,0.672-0.219c0.694,0.354,1.429,0.623,2.183,0.8 c0.27,0.063,0.436,0.333,0.372,0.602C76.212,73.601,76.007,73.756,75.779,73.756z"/><path fill="#1f212b" d="M71.9,71.933c-0.104,0-0.208-0.032-0.298-0.098c-0.748-0.554-1.476-1.222-2.164-1.988 c-1.804-2.004-2.551-5.088-3.043-7.84c-0.457-2.548-0.617-5.169-0.772-7.704l-0.034-0.552c-0.017-0.275,0.192-0.513,0.468-0.53 c0.302-0.019,0.514,0.193,0.53,0.468l0.034,0.553c0.153,2.506,0.313,5.098,0.759,7.589c0.468,2.613,1.167,5.53,2.803,7.348 c0.643,0.716,1.321,1.339,2.016,1.853c0.222,0.164,0.269,0.477,0.104,0.699C72.204,71.863,72.053,71.933,71.9,71.933z"/><path fill="#1f212b" d="M77.148,80.895c-0.01,0-0.021,0-0.032-0.001c-0.921-0.059-1.802-0.145-2.617-0.254 c-7.593-1.024-9.826-8.393-11.011-15.466c-1.085-6.469-2.606-11.034-4.522-13.567c-0.167-0.22-0.123-0.534,0.097-0.701 c0.222-0.167,0.535-0.123,0.7,0.097c2.015,2.664,3.601,7.376,4.712,14.006c1.124,6.713,3.21,13.703,10.157,14.64 c0.793,0.107,1.65,0.19,2.549,0.248c0.275,0.018,0.484,0.255,0.467,0.531C77.631,80.691,77.41,80.895,77.148,80.895z"/><path fill="#1f212b" d="M46.731,60.954c-0.04,0-0.08-0.005-0.121-0.015c-0.268-0.067-0.431-0.338-0.364-0.606 c1.017-4.073,2.464-7.333,4.185-9.428c0.178-0.213,0.492-0.244,0.704-0.069c0.213,0.175,0.244,0.49,0.069,0.704 c-1.628,1.981-3.007,5.105-3.987,9.035C47.16,60.802,46.956,60.954,46.731,60.954z"/><path fill="#1f212b" d="M45.976,64.618c-0.027,0-0.056-0.002-0.084-0.007c-0.272-0.046-0.456-0.303-0.41-0.576 c0.075-0.447,0.155-0.888,0.238-1.322c0.053-0.272,0.315-0.449,0.586-0.396c0.271,0.052,0.448,0.314,0.396,0.585 c-0.083,0.426-0.161,0.859-0.234,1.297C46.427,64.445,46.215,64.618,45.976,64.618z"/><path fill="#1f212b" d="M45.189,74.495c-0.276,0-0.5-0.224-0.5-0.5c0-2.537,0.146-5.042,0.434-7.447 c0.033-0.274,0.29-0.465,0.556-0.437c0.274,0.033,0.47,0.282,0.437,0.556c-0.282,2.365-0.426,4.831-0.426,7.328 C45.689,74.271,45.466,74.495,45.189,74.495z"/><path fill="#1f212b" d="M43.14,34.376c-0.062,0-0.123-0.003-0.185-0.01c-0.952-0.101-1.729-0.968-2.188-2.441 c-0.415-1.334-0.539-3.052-0.35-4.837l0.994,0.105c-0.175,1.652-0.065,3.228,0.311,4.435c0.322,1.038,0.822,1.689,1.338,1.744 c0.551,0.056,1.171-0.504,1.713-1.496l0.877,0.479C44.935,33.667,44.049,34.376,43.14,34.376z"/><ellipse cx="67.234" cy="30.236" fill="#444445" rx="2.561" ry="6.47" transform="rotate(-6.066 67.22 30.245)"/><g><path fill="#ae5ca3" d="M64.931,32.116c0.633,1.158,1.421,1.836,2.205,1.753c1.533-0.163,2.469-3.175,2.092-6.728 l0.553,2.825l0.076,2.311l-0.417,1.819l-0.447,1.372l-0.779,1.121h-0.981l-0.864-0.875l-0.797-1.481L64.931,32.116z"/></g><g><path fill="#d3dff1" d="M64.843,31.826c1.876-0.443,3.058-3.633,2.665-7.336c-0.029-0.271-0.065-0.538-0.109-0.8 l-1.256,0.241l-0.725,1.014l-0.423,1.491l-0.417,1.224L64.843,31.826z"/></g><g><path fill="#1f212b" d="M67.806,37.176c-0.842,0-1.664-0.691-2.333-1.967c-0.638-1.218-1.094-2.87-1.282-4.649l0,0 c-0.356-3.36,0.331-7.044,2.309-7.254c2.005-0.225,3.423,3.25,3.778,6.608c0.188,1.78,0.09,3.49-0.278,4.815 c-0.411,1.478-1.132,2.344-2.03,2.438C67.914,37.173,67.859,37.176,67.806,37.176z M65.185,30.454 c0.176,1.657,0.593,3.181,1.174,4.291c0.495,0.943,1.073,1.476,1.505,1.428c0.449-0.048,0.888-0.688,1.172-1.712 c0.336-1.207,0.424-2.784,0.248-4.442c-0.391-3.677-1.8-5.812-2.679-5.72C65.749,24.39,64.795,26.775,65.185,30.454L65.185,30.454z"/></g><g><path fill="#1f212b" d="M64.958,32.313l-0.23-0.974c1.616-0.381,2.64-3.43,2.283-6.796l-0.046-0.384l0.99-0.133l0.05,0.41 C68.427,28.417,67.117,31.803,64.958,32.313z"/></g><g><path fill="#1f212b" d="M67.003,34.376c-0.909,0-1.795-0.709-2.511-2.02l0.877-0.479c0.543,0.992,1.182,1.55,1.713,1.496 c0.516-0.055,1.016-0.707,1.338-1.744c0.376-1.207,0.485-2.782,0.311-4.435l0.994-0.105c0.189,1.785,0.065,3.502-0.35,4.837 c-0.458,1.474-1.235,2.34-2.188,2.441C67.126,34.373,67.064,34.376,67.003,34.376z"/></g></svg>