<svg xmlns="http://www.w3.org/2000/svg" viewBox="0 0 100 100"><path fill="#d68f53" d="M27.362,71.277c-0.967,4.539,0.681,8.455,3.688,12.047l-0.816,2.442 c1.809,1.439,4.369,1.181,7.085,0.574l-2.592,2.886l2.018,2.284l2.936,0.447l2.872,0.064l3.064-2.426l2.809,2.489l4.979-0.447 l1.66-1.149l0.766-1.404l-0.319-1.34l3-0.574l2.426-0.574l-0.319-1.34l-0.726-1.931l2.641-2.154L63.809,76l-0.064-1.915 L27.362,71.277z"/><path fill="#d68f53" d="M68.617,39.298l-6.894,3.66l0.553,4.34l3.617,26.255c13.358-1.291,20.338-10.11,19.489-28.17 L68.617,39.298z"/><polygon fill="#fefdef" points="80.404,35.298 70.191,39.383 72.745,40.702 70.495,45.25 76.431,43.75 77.723,48.149 80.34,45.856 81.426,48.697 84.957,44.745 83.426,36.574 81.426,36.447 80.702,33.936"/><path fill="#d68f53" d="M22.1,11.698L14.613,7.93l1.624,8.224c1.566,7.931,6.5,14.791,13.521,18.798l9.508,5.426 l-2.679-10.614C34.607,21.925,29.321,15.333,22.1,11.698z"/><path fill="#1f212b" d="M39.265,41.377c-0.171,0-0.342-0.043-0.496-0.131l-9.507-5.426 c-7.278-4.154-12.384-11.251-14.007-19.472l-1.624-8.224c-0.073-0.375,0.072-0.759,0.376-0.99s0.714-0.27,1.055-0.097l7.488,3.769 l0,0c7.485,3.767,12.955,10.588,15.006,18.713l2.679,10.614c0.098,0.389-0.046,0.798-0.365,1.041 C39.691,41.309,39.479,41.377,39.265,41.377z M15.989,9.742l1.229,6.218c1.51,7.651,6.262,14.257,13.036,18.123l7.467,4.262 l-2.104-8.337c-1.908-7.562-6.999-13.91-13.965-17.417L15.989,9.742z"/><path fill="#d68f53" d="M68.841,11.698l7.488-3.769l-1.624,8.224c-1.566,7.931-6.5,14.791-13.521,18.798l-9.508,5.426 l2.679-10.614C56.334,21.925,61.62,15.333,68.841,11.698z"/><path fill="#1f212b" d="M51.677,41.377c-0.214,0-0.427-0.069-0.604-0.204c-0.319-0.243-0.463-0.652-0.365-1.041 l2.679-10.614c2.051-8.125,7.521-14.946,15.006-18.713l0,0l7.488-3.769c0.34-0.172,0.749-0.135,1.055,0.097 c0.304,0.231,0.449,0.615,0.376,0.99l-1.624,8.224c-1.623,8.221-6.729,15.318-14.007,19.472l-9.507,5.426 C52.019,41.334,51.848,41.377,51.677,41.377z M69.29,12.591c-6.966,3.506-12.057,9.854-13.965,17.417l-2.104,8.337l7.467-4.262 c6.774-3.866,11.526-10.471,13.036-18.123l1.229-6.218L69.29,12.591z"/><path fill="#1f212b" d="M34.904,88.291c-2.271,0-5.704,0-6.143-2.623c-0.162-0.971,0.072-1.804,0.67-2.44 c-3.338-3.329-4.623-8.896-3.046-13.777c0.17-0.525,0.729-0.813,1.259-0.645c0.525,0.17,0.813,0.733,0.644,1.259 c-1.452,4.497-0.002,9.856,3.373,12.467c0.281,0.217,0.426,0.566,0.381,0.918c-0.045,0.352-0.273,0.653-0.6,0.792 c-0.771,0.33-0.778,0.676-0.708,1.095c0.141,0.839,2.187,0.953,4.17,0.953c0.493,0,0.976-0.042,1.436-0.125 c0.546-0.097,1.063,0.264,1.161,0.808s-0.264,1.063-0.808,1.161C36.117,88.239,35.516,88.291,34.904,88.291z"/><path fill="#1f212b" d="M56.037,88.291c-0.42,0-0.841-0.025-1.25-0.075c-0.548-0.066-0.939-0.564-0.873-1.113 c0.066-0.548,0.559-0.94,1.113-0.873c0.33,0.04,0.67,0.06,1.01,0.06c1.983,0,4.029-0.113,4.17-0.953 c0.07-0.419,0.063-0.766-0.708-1.095c-0.326-0.139-0.555-0.441-0.6-0.792c-0.045-0.352,0.1-0.701,0.381-0.918 c3.375-2.61,4.825-7.97,3.372-12.466c-0.17-0.526,0.118-1.089,0.644-1.259c0.53-0.168,1.089,0.119,1.259,0.644 c1.578,4.881,0.294,10.448-3.045,13.777c0.598,0.636,0.832,1.469,0.67,2.44C61.741,88.291,58.309,88.291,56.037,88.291z"/><path fill="#fefdef" d="M28.543,48.17c-2.298,1.673-3.482,3.862-3.703,6.496c-4.819,10.019-0.977,15.792,5.299,17.951 c7.414,2.427,15.152,4.794,17.617,8.138c3.75-0.527,7.197-4.771,8.234-4.883c4.685-0.505,9.218-2.94,10.532-6.191 c0.867-2.145,2.875-6.201,1.883-10c-0.793-3.039-2.809-7.116-3.702-9.447c-0.908-2.372-3.23-2.654-3.23-2.654L28.543,48.17z"/><path fill="#b77748" d="M31.244,32.346c-6.27-3.579-10.667-9.692-12.064-16.773l-0.436-2.205l2.008,1.01 c6.447,3.245,11.158,9.121,12.925,16.12l0.955,3.781L31.244,32.346z"/><path fill="#1f212b" d="M34.632,34.779c-0.085,0-0.171-0.021-0.248-0.066l-3.388-1.933l0,0 c-6.396-3.65-10.882-9.887-12.307-17.111l-0.436-2.205c-0.037-0.187,0.035-0.379,0.188-0.495c0.153-0.116,0.357-0.134,0.527-0.049 l2.008,1.01c6.577,3.311,11.383,9.304,13.185,16.444l0.955,3.781c0.05,0.194-0.022,0.399-0.182,0.521 C34.846,34.745,34.739,34.779,34.632,34.779z M31.492,31.912l2.367,1.351l-0.667-2.642c-1.731-6.858-6.348-12.616-12.665-15.795 l-1.095-0.551l0.237,1.202C21.04,22.414,25.349,28.405,31.492,31.912L31.492,31.912z"/><path fill="#b77748" d="M57.265,30.498c1.767-6.999,6.478-12.875,12.925-16.12l2.008-1.01l-0.436,2.205 c-1.397,7.082-5.795,13.195-12.065,16.773l-3.387,1.933L57.265,30.498z"/><path fill="#1f212b" d="M56.31,34.778c-0.107,0-0.214-0.034-0.303-0.102c-0.159-0.121-0.231-0.326-0.182-0.521l0.955-3.781 c1.802-7.14,6.607-13.133,13.185-16.444l2.008-1.01c0.171-0.085,0.375-0.067,0.527,0.049c0.152,0.115,0.225,0.308,0.188,0.495 l-0.436,2.205c-1.425,7.224-5.911,13.46-12.308,17.111l-3.387,1.933C56.48,34.757,56.395,34.778,56.31,34.778z M71.509,14.274 l-1.095,0.551c-6.317,3.18-10.934,8.937-12.665,15.795l0,0l-0.667,2.642l2.366-1.35c6.145-3.507,10.454-9.498,11.823-16.436 L71.509,14.274z M57.265,30.498h0.01H57.265z"/><path fill="#d68f53" d="M48.298,60.426h-5.681c-7.121,0-12.894-5.773-12.894-12.894V36.745c0-3.455,1.95-7.915,5.404-7.915 l-2.043-1.745l5.404-1.064l0.681-1.66l5.745,0.894l0.511-3.064l6.415,3.271l1.372-0.761c2.383,0.298,7.979,8.588,7.979,12.043 v10.787C61.191,54.653,55.419,60.426,48.298,60.426z"/><path fill="#1f212b" d="M50.911,93.015c-2.374,0-4.362-0.711-5.438-1.816c-1.073,1.101-3.065,1.816-5.445,1.816 c-3.592,0-6.301-1.628-6.301-3.788c0-1.137,0.772-2.166,2.111-2.865l-4.295-11.692c-1.876-1.005-3.372-2.195-4.556-3.624 c-3.476-0.809-6.049-4.719-6.049-9.297c0-2.953,1.066-5.713,2.875-7.496c-0.001-0.054-0.002-0.109-0.002-0.164 c0-3.204,1.844-6.01,4.657-7.206v-7.772c0-3.974,1.637-7.705,4.524-10.393l-0.82-0.872c-0.207-0.221-0.304-0.524-0.262-0.824 s0.218-0.565,0.479-0.72c1.21-0.721,2.55-1.026,4.829-1.026c0.029,0,0.059,0,0.089,0l-0.334-0.463 c-0.188-0.261-0.24-0.598-0.138-0.903c0.103-0.306,0.346-0.543,0.653-0.638c2.342-0.722,4.588-0.25,6.606,0.561l-0.381-1.609 c-0.082-0.348,0.028-0.713,0.288-0.958c0.261-0.246,0.633-0.332,0.974-0.229l0.312,0.093c2.072,0.621,3.63,1.088,6.777,3.328 l0.231-0.878c0.078-0.296,0.288-0.541,0.569-0.663c0.281-0.123,0.603-0.108,0.872,0.038c2.165,1.168,3.422,3.682,4.11,5.682 c2.942,2.697,4.624,6.499,4.624,10.476v7.772c2.813,1.195,4.657,4.002,4.657,7.206c0,0.055-0.001,0.109-0.002,0.164 c1.809,1.783,2.875,4.543,2.875,7.496c0,2.611-0.84,5.101-2.313,6.882c-0.789,4.208-4.492,7.625-9.204,8.524l-3.382,9.207 c1.338,0.699,2.11,1.728,2.11,2.865C57.214,91.386,54.504,93.015,50.911,93.015z M46.61,89.265c0.06,0.711,1.76,1.75,4.301,1.75 c2.587,0,4.303-1.076,4.303-1.788c0-0.377-0.533-0.97-1.704-1.378c-0.253-0.088-0.46-0.274-0.575-0.517 c-0.114-0.242-0.127-0.521-0.034-0.772l3.908-10.64c0.127-0.345,0.433-0.593,0.797-0.645c4.238-0.606,7.592-3.582,8.156-7.237 c0.029-0.19,0.112-0.368,0.24-0.512c1.271-1.432,2.001-3.538,2.001-5.777c0-2.577-0.955-4.942-2.555-6.326 c-0.24-0.208-0.367-0.517-0.343-0.833c0.013-0.166,0.024-0.332,0.024-0.5c0-2.543-1.627-4.827-3.955-5.554 c-0.418-0.13-0.702-0.517-0.702-0.955v-8.469c0-3.494-1.513-6.832-4.149-9.158c-0.134-0.118-0.233-0.269-0.289-0.438 c-0.354-1.08-1.056-2.816-2.185-3.98l-0.226,0.853c-0.085,0.323-0.325,0.582-0.641,0.69c-0.314,0.109-0.662,0.053-0.93-0.148 c-2.893-2.188-4.41-2.928-5.989-3.463l0.449,1.897c0.089,0.378-0.049,0.774-0.354,1.016s-0.725,0.281-1.07,0.107 c-2.295-1.161-4.016-1.656-5.571-1.567l0.604,0.837c0.226,0.313,0.252,0.728,0.066,1.066c-0.186,0.337-0.529,0.539-0.934,0.518 c-2.369-0.134-3.714-0.057-4.641,0.18l0.551,0.585c0.191,0.204,0.289,0.478,0.269,0.756c-0.02,0.278-0.154,0.536-0.372,0.71 c-2.919,2.337-4.593,5.813-4.593,9.538v8.469c0,0.438-0.284,0.824-0.702,0.955c-2.328,0.728-3.955,3.011-3.955,5.554 c0,0.167,0.011,0.332,0.024,0.496c0.025,0.318-0.102,0.629-0.343,0.838c-1.6,1.384-2.555,3.749-2.555,6.326 c0,3.778,2.046,6.959,4.76,7.4c0.249,0.04,0.473,0.173,0.628,0.371c1.105,1.415,2.57,2.577,4.478,3.551 c0.225,0.115,0.396,0.31,0.483,0.546l4.754,12.942c0.093,0.251,0.08,0.53-0.034,0.772c-0.115,0.243-0.322,0.429-0.575,0.517 c-1.172,0.409-1.705,1.001-1.705,1.378c0,0.712,1.715,1.788,4.301,1.788c2.585,0,4.301-1.076,4.301-1.788l0.144-4.383 c0.018-0.539,0.46-0.967,0.999-0.967l0,0c0.54,0,0.981,0.428,0.999,0.967l0.142,4.326C46.612,89.2,46.612,89.232,46.61,89.265z"/><path fill="#1f212b" d="M47.403,81.397c-0.207,0-0.395-0.128-0.468-0.324c-0.961-2.561-4.196-3.524-7.942-4.64 c-4.036-1.202-8.609-2.564-11.583-6.314c-0.172-0.216-0.136-0.531,0.081-0.702c0.215-0.172,0.53-0.136,0.702,0.081 c2.777,3.503,7.191,4.817,11.085,5.977c3.843,1.145,7.183,2.139,8.447,4.896c2.634-0.269,4.855-1.867,6.607-4.754 c0.099-0.162,0.284-0.26,0.47-0.239c1.437,0.122,2.936-0.021,4.315-0.429c0.262-0.08,0.543,0.073,0.621,0.338 c0.078,0.265-0.073,0.543-0.338,0.621c-1.401,0.415-2.914,0.58-4.375,0.489c-1.988,3.145-4.542,4.827-7.595,5 C47.422,81.397,47.412,81.397,47.403,81.397z"/><path fill="#1f212b" d="M54.753,76.376c-0.086,0-0.174-0.022-0.253-0.069c-0.238-0.14-0.318-0.446-0.179-0.684 c0.687-1.171,0.958-2.121,1.173-3.275c0.05-0.272,0.31-0.454,0.583-0.4c0.271,0.051,0.45,0.312,0.399,0.583 c-0.228,1.225-0.534,2.306-1.292,3.598C55.091,76.288,54.924,76.376,54.753,76.376z"/><path fill="#1f212b" d="M66.316,69.732c-0.001,0-0.003,0-0.004,0c-0.276-0.002-0.498-0.228-0.496-0.504 c0.009-1.089-0.137-3.22-1.2-5.256c-0.128-0.245-0.033-0.547,0.212-0.675c0.245-0.127,0.546-0.034,0.675,0.212 c1.164,2.229,1.322,4.544,1.313,5.727C66.814,69.511,66.591,69.732,66.316,69.732z"/><path fill="#1f212b" d="M63.865,62.479c-0.141,0-0.28-0.059-0.379-0.174c-0.139-0.161-0.286-0.318-0.441-0.472 c-0.196-0.194-0.198-0.51-0.004-0.707c0.193-0.196,0.51-0.199,0.707-0.004c0.175,0.172,0.34,0.349,0.496,0.531 c0.181,0.209,0.156,0.525-0.053,0.705C64.097,62.439,63.98,62.479,63.865,62.479z"/><path fill="#1f212b" d="M28.721,71.44c-0.147,0-0.295-0.065-0.394-0.191c-1.898-2.419-2.021-4.831-1.789-6.428 c0.316-2.175,1.489-4.172,3.139-5.342c0.225-0.16,0.537-0.107,0.697,0.119c0.159,0.225,0.106,0.537-0.119,0.697 c-1.43,1.014-2.449,2.76-2.727,4.67c-0.204,1.403-0.095,3.526,1.586,5.667c0.17,0.217,0.133,0.531-0.085,0.702 C28.938,71.405,28.829,71.44,28.721,71.44z"/><path fill="#1f212b" d="M22.806,58.461c-0.098,0-0.196-0.028-0.283-0.088c-0.228-0.156-0.285-0.467-0.129-0.695 c1.583-2.307,3.103-4.223,5.671-4.312c0.269-0.035,0.508,0.206,0.518,0.482c0.009,0.276-0.207,0.507-0.482,0.517 c-2.105,0.073-3.403,1.726-4.882,3.879C23.121,58.385,22.965,58.461,22.806,58.461z"/><path fill="#1f212b" d="M68.07,58.9c-0.177,0-0.349-0.094-0.439-0.261c-1.247-2.294-2.367-4.073-4.454-4.363 c-0.273-0.038-0.464-0.291-0.426-0.564c0.038-0.274,0.301-0.464,0.564-0.426c2.545,0.354,3.858,2.417,5.194,4.876 c0.132,0.243,0.042,0.546-0.201,0.678C68.233,58.88,68.151,58.9,68.07,58.9z"/><path fill="#1f212b" d="M48.168,61.074h-5.395c-7.344,0-13.318-5.975-13.318-13.319h1c0,6.792,5.526,12.319,12.318,12.319 h5.395c6.792,0,12.318-5.526,12.318-12.319h1C61.486,55.1,55.512,61.074,48.168,61.074z"/><path fill="#1f212b" d="M63.71,74.812c-0.54,0-0.984-0.431-0.999-0.974c-0.015-0.552,0.422-1.011,0.974-1.026 c7.219-0.19,12.365-2.227,15.732-6.225c4.708-5.59,6.058-15.177,4.117-29.292l-1.46,0.11c-0.489,0.029-0.931-0.285-1.047-0.76 l-0.387-1.585c-2.014,2.095-5.324,2.986-8.549,3.854c-3.841,1.033-7.813,2.102-9.665,5.09c-0.289,0.469-0.906,0.614-1.376,0.323 c-0.47-0.291-0.614-0.907-0.323-1.377c2.268-3.66,6.628-4.833,10.845-5.968c3.827-1.03,7.442-2.002,8.575-4.753 c0.165-0.399,0.556-0.654,1-0.616c0.432,0.033,0.794,0.339,0.896,0.76l0.726,2.974l1.548-0.117 c0.518-0.046,0.989,0.333,1.064,0.853c2.216,15.22,0.765,25.619-4.435,31.792c-3.758,4.461-9.387,6.73-17.21,6.936 C63.729,74.812,63.72,74.812,63.71,74.812z"/><path fill="#1f212b" d="M81.003,40.77c-0.04,0-0.082-0.005-0.123-0.016c-0.268-0.068-0.43-0.34-0.361-0.608 c0.457-1.794,0.547-2.667,0.223-4.63c-0.045-0.272,0.14-0.53,0.412-0.575c0.268-0.047,0.529,0.139,0.574,0.412 c0.352,2.125,0.248,3.122-0.24,5.04C81.43,40.619,81.227,40.77,81.003,40.77z"/><path fill="#1f212b" d="M81.668,49.418c-0.027,0-0.054-0.002-0.081-0.007c-0.172-0.028-0.317-0.144-0.383-0.306 l-0.983-2.435l-2.337,2.493c-0.124,0.132-0.313,0.187-0.484,0.144c-0.176-0.043-0.314-0.177-0.362-0.352 c-0.228-0.817-0.325-1.633-0.412-2.352c-0.105-0.88-0.199-1.662-0.488-2.273c-1.608,0.741-3.851,1.608-6.108,1.608 c-0.003,0-0.007,0-0.011,0c-0.186,0-0.355-0.103-0.441-0.267c-0.087-0.164-0.075-0.363,0.03-0.516 c1.197-1.748,1.992-3.133,2.469-4.309l-3.383-1.026c-0.264-0.08-0.413-0.359-0.333-0.624c0.08-0.264,0.357-0.414,0.624-0.333 l3.894,1.181c0.13,0.04,0.238,0.13,0.3,0.251s0.071,0.262,0.027,0.391c-0.407,1.173-1.116,2.521-2.21,4.193 c2.209-0.255,4.356-1.28,5.128-1.648c0.22-0.104,0.484-0.037,0.625,0.164c0.603,0.857,0.733,1.941,0.871,3.088 c0.052,0.428,0.104,0.865,0.182,1.306l2.226-2.375c0.117-0.124,0.293-0.178,0.457-0.15c0.168,0.031,0.308,0.146,0.372,0.304 l0.97,2.399l2.433-2.825c0.181-0.209,0.497-0.231,0.705-0.053c0.209,0.18,0.232,0.496,0.053,0.705l-2.968,3.447 C81.951,49.356,81.813,49.418,81.668,49.418z"/><path fill="#1f212b" d="M47.519,81.621c-0.146,0-0.289-0.063-0.389-0.185c-0.174-0.214-0.141-0.529,0.073-0.703 c0.791-0.642,0.964-1.778,0.969-2.618c0.019-2.936-1.854-6.72-4.355-8.801c-0.213-0.177-0.241-0.492-0.065-0.704 c0.179-0.212,0.494-0.24,0.704-0.064c2.754,2.291,4.737,6.318,4.717,9.576c-0.01,1.514-0.473,2.686-1.338,3.388 C47.741,81.584,47.63,81.621,47.519,81.621z"/><path d="M45.448,47.935c0,0-0.988-0.475-0.988-0.751s0.224-0.5,0.5-0.5h1.021c0.276,0,0.5,0.224,0.5,0.5 S45.448,47.935,45.448,47.935z"/><path fill="#1f212b" d="M45.443,48.487l-0.212-0.102c-1.271-0.611-1.271-1.04-1.271-1.202c0-0.551,0.448-1,1-1h1.021 c0.552,0,1,0.449,1,1c0,0.179,0,0.597-1.324,1.206L45.443,48.487z M45.133,47.184c0.092,0.061,0.204,0.128,0.32,0.191 c0.122-0.063,0.239-0.13,0.337-0.191H45.133z"/><path fill="#1f212b" d="M48.605,52.928c-0.427,0-0.855-0.052-1.275-0.158l-1.805-0.453l-1.651,0.418 c-1.37,0.347-2.838,0.12-4.038-0.62c-0.235-0.145-0.308-0.453-0.163-0.688c0.146-0.235,0.455-0.307,0.688-0.163 c0.971,0.599,2.163,0.782,3.267,0.501l1.773-0.449c0.082-0.021,0.165-0.021,0.245,0l1.928,0.484 c0.976,0.244,2.013,0.134,2.916-0.313l0.302-0.15c0.245-0.12,0.547-0.021,0.67,0.227c0.122,0.247,0.021,0.547-0.227,0.67 l-0.302,0.149C50.206,52.744,49.407,52.928,48.605,52.928z"/><g><ellipse cx="37.457" cy="41.126" fill="#444445" rx="3.185" ry="5.027"/><path fill="#1f212b" d="M37.457,46.653c-2.066,0-3.686-2.428-3.686-5.527s1.619-5.526,3.686-5.526s3.685,2.427,3.685,5.526 S39.523,46.653,37.457,46.653z M37.457,36.6c-1.456,0-2.686,2.073-2.686,4.526s1.229,4.527,2.686,4.527 c1.455,0,2.685-2.073,2.685-4.527S38.912,36.6,37.457,36.6z"/><g><ellipse cx="53.484" cy="41.126" fill="#444445" rx="3.185" ry="5.027"/><path fill="#1f212b" d="M53.484,46.653c-2.066,0-3.685-2.428-3.685-5.527s1.618-5.526,3.685-5.526s3.685,2.427,3.685,5.526 S55.551,46.653,53.484,46.653z M53.484,36.6c-1.455,0-2.685,2.073-2.685,4.526s1.229,4.527,2.685,4.527s2.685-2.073,2.685-4.527 S54.939,36.6,53.484,36.6z"/></g></g><g><ellipse cx="38.465" cy="39.302" fill="#eeecd9" rx="1.404" ry="1.967"/><path fill="#1f212b" d="M38.466,41.77c-1.067,0-1.904-1.084-1.904-2.467s0.837-2.467,1.904-2.467s1.904,1.084,1.904,2.467 S39.533,41.77,38.466,41.77z M38.466,37.835c-0.481,0-0.904,0.686-0.904,1.467s0.423,1.467,0.904,1.467s0.904-0.686,0.904-1.467 S38.947,37.835,38.466,37.835z"/></g><g><ellipse cx="52.465" cy="39.302" fill="#eeecd9" rx="1.404" ry="1.967"/><path fill="#1f212b" d="M52.466,41.77c-1.067,0-1.904-1.084-1.904-2.467s0.837-2.467,1.904-2.467s1.904,1.084,1.904,2.467 S53.533,41.77,52.466,41.77z M52.466,37.835c-0.481,0-0.904,0.686-0.904,1.467s0.423,1.467,0.904,1.467s0.904-0.686,0.904-1.467 S52.947,37.835,52.466,37.835z"/></g><g><path fill="#1f212b" d="M38.589,92.57c-0.067,0-0.136-0.014-0.201-0.042c-1.021-0.45-1.443-1.745-0.94-2.887 c0.212-0.481,0.568-0.884,1.006-1.134c0.236-0.137,0.545-0.055,0.682,0.186c0.138,0.24,0.055,0.545-0.186,0.682 c-0.252,0.144-0.46,0.381-0.586,0.668c-0.281,0.638-0.09,1.342,0.427,1.569c0.253,0.111,0.368,0.406,0.257,0.659 C38.964,92.459,38.781,92.57,38.589,92.57z"/></g><g><path fill="#1f212b" d="M40.953,92.156c-0.228,0-0.433-0.155-0.486-0.385c-0.084-0.355-0.086-0.735-0.006-1.099 c0.112-0.515,0.384-0.98,0.762-1.311c0.206-0.181,0.522-0.162,0.706,0.047c0.182,0.208,0.16,0.524-0.048,0.706 c-0.219,0.191-0.376,0.465-0.443,0.772c-0.048,0.219-0.047,0.446,0.002,0.656c0.063,0.269-0.103,0.538-0.372,0.602 C41.029,92.151,40.99,92.156,40.953,92.156z"/></g><g><path fill="#1f212b" d="M52.369,92.342c-0.2,0-0.39-0.121-0.466-0.319c-0.101-0.257,0.027-0.547,0.285-0.647 c0.177-0.068,0.314-0.219,0.388-0.423c0.082-0.23,0.074-0.496-0.023-0.748c-0.088-0.226-0.239-0.416-0.427-0.534 c-0.233-0.147-0.303-0.457-0.155-0.69c0.149-0.234,0.458-0.302,0.69-0.155c0.367,0.232,0.659,0.594,0.823,1.018 c0.185,0.476,0.197,0.989,0.034,1.446c-0.173,0.482-0.517,0.844-0.969,1.02C52.49,92.331,52.43,92.342,52.369,92.342z"/></g><g><path fill="#1f212b" d="M48.476,92.357c-0.089,0-0.178-0.007-0.267-0.022c-0.272-0.045-0.457-0.302-0.412-0.575 s0.296-0.46,0.575-0.412c0.438,0.07,0.876-0.318,0.968-0.872c0.042-0.252,0.006-0.506-0.102-0.715 c-0.126-0.246-0.028-0.547,0.218-0.673c0.243-0.124,0.547-0.029,0.673,0.218c0.204,0.398,0.273,0.872,0.197,1.334 C50.16,91.638,49.359,92.357,48.476,92.357z"/></g></svg>