<svg xmlns="http://www.w3.org/2000/svg" viewBox="0 0 100 100"><path fill="#f497b0" d="M77.877,17.515c-0.001,0-0.001,0-0.002,0v0c-6.555-0.084-12.829,3.507-15.838,9.343 c-2.12,4.114-2.444,8.764-1.116,13.022c0.205,0.456,0.424,0.894,0.648,1.324c0.376,1.273,0.976,2.527,1.87,3.756 c0.173,0.238,0.45,0.381,0.743,0.385c0.068,0,0.135,0.002,0.203,0.002c6.499,0,12.364-3.567,15.338-9.343 C82.731,30.166,81.748,22.843,77.877,17.515z"/><path fill="#1f212b" d="M64.385,46.346l-0.112-0.001c-0.004,0-0.099,0-0.103,0c-0.606-0.007-1.182-0.305-1.54-0.796 c-0.898-1.236-1.568-2.571-1.992-3.968c-0.218-0.419-0.43-0.847-0.629-1.291c-0.016-0.037-0.031-0.075-0.042-0.113 c-1.438-4.614-1.019-9.507,1.182-13.778c3.143-6.095,9.688-9.993,16.74-9.885c0.316,0.004,0.613,0.157,0.798,0.412 c4.262,5.867,5.018,13.534,1.925,19.534C77.472,42.559,71.254,46.346,64.385,46.346z M61.858,39.524 c0.189,0.418,0.391,0.821,0.598,1.217c0.03,0.057,0.054,0.117,0.072,0.18c0.363,1.229,0.925,2.358,1.719,3.451l0.047-0.026 c0,0,0.001,0,0.002,0c6.208,0,11.743-3.372,14.538-8.8c2.679-5.196,2.09-11.827-1.474-17.029c-6.085,0.105-11.71,3.519-14.434,8.8 C60.977,31.099,60.598,35.433,61.858,39.524z"/><path fill="#656566" d="M75.528,35.243c0.223-0.349,0.447-0.698,0.639-1.072c1.909-3.703,1.701-8.517-0.419-12.525 c-3.387,0.472-6.472,2.197-8.602,4.743C70.508,28.735,73.367,31.749,75.528,35.243z"/><path fill="#1f212b" d="M75.529,35.741c-0.001,0-0.002,0-0.003,0c-0.172-0.001-0.333-0.089-0.423-0.235 c-2.133-3.449-4.906-6.378-8.242-8.708c-0.115-0.081-0.191-0.205-0.209-0.344c-0.019-0.139,0.022-0.279,0.112-0.387 c2.243-2.682,5.41-4.428,8.916-4.917c0.208-0.03,0.412,0.076,0.511,0.261c2.223,4.203,2.384,9.18,0.421,12.988 c-0.199,0.386-0.429,0.748-0.66,1.108C75.86,35.652,75.7,35.741,75.529,35.741z M67.887,26.302c3.03,2.196,5.594,4.883,7.636,8.002 c0.069-0.119,0.136-0.239,0.2-0.362c1.767-3.428,1.663-7.898-0.255-11.747C72.566,22.681,69.847,24.156,67.887,26.302z"/><path fill="#f497b0" d="M37.849,26.856c-3.007-5.836-9.284-9.427-15.838-9.343c-3.871,5.328-4.854,12.651-1.846,18.488 c2.974,5.776,8.839,9.343,15.338,9.343c0.068,0,0.135-0.002,0.203-0.002c0.294-0.003,0.57-0.147,0.743-0.385 c0.912-1.255,1.528-2.536,1.91-3.836c0.209-0.404,0.413-0.817,0.605-1.244C40.293,35.62,39.969,30.971,37.849,26.856z"/><path fill="#1f212b" d="M35.503,46.345c-6.87,0-13.087-3.788-16.227-9.885c-3.092-6-2.336-13.667,1.926-19.534 c0.186-0.255,0.48-0.408,0.796-0.412c7.056-0.082,13.599,3.791,16.74,9.885h0c2.201,4.27,2.621,9.163,1.182,13.777 c-0.012,0.038-0.026,0.076-0.043,0.113c-0.187,0.415-0.383,0.815-0.585,1.209c-0.431,1.423-1.115,2.784-2.033,4.048 c-0.358,0.492-0.934,0.79-1.541,0.797L35.503,46.345z M22.529,18.514c-3.564,5.203-4.153,11.833-1.475,17.029 c2.795,5.429,8.332,8.801,14.449,8.801l0.203-0.002c0.75-1.094,1.325-2.249,1.694-3.503c0.018-0.061,0.042-0.121,0.071-0.177 c0.191-0.371,0.379-0.75,0.556-1.141c1.26-4.092,0.881-8.425-1.068-12.208h0C34.239,22.033,28.614,18.62,22.529,18.514z M38.965,39.878h0.01H38.965z"/><path fill="#f497b0" d="M76.677,47.935c-2.222,0-5.948,1.141-5.948,8.782c0,2.941,5.026,4.529,9.752,4.529 c4.728,0,9.752-1.588,9.752-4.529C90.234,53.922,81.724,47.935,76.677,47.935z"/><path fill="#1f212b" d="M80.481,62.246c-5.343,0-10.752-1.899-10.752-5.529c0-8.828,4.858-9.781,6.947-9.781 c5.306,0,14.557,6.216,14.557,9.781C91.234,60.347,85.825,62.246,80.481,62.246z M76.677,48.936c-3.236,0-4.947,2.691-4.947,7.781 c0,1.913,4.008,3.529,8.752,3.529s8.752-1.616,8.752-3.529C89.234,54.901,81.605,48.936,76.677,48.936z"/><path fill="#f497b0" d="M23.323,47.935c2.222,0,5.948,1.141,5.948,8.782c0,2.941-5.024,4.529-9.752,4.529 s-9.752-1.588-9.752-4.529C9.766,53.922,18.276,47.935,23.323,47.935z"/><path fill="#1f212b" d="M19.519,62.246c-5.343,0-10.752-1.899-10.752-5.529c0-3.565,9.251-9.781,14.557-9.781 c2.089,0,6.947,0.953,6.947,9.781C30.271,60.347,24.862,62.246,19.519,62.246z M23.323,48.936c-4.928,0-12.557,5.966-12.557,7.781 c0,1.913,4.008,3.529,8.752,3.529s8.752-1.616,8.752-3.529C28.271,51.626,26.56,48.936,23.323,48.936z"/><ellipse cx="64.994" cy="78" fill="#f497b0" rx="13.994" ry="5"/><path fill="#1f212b" d="M64.995,84C57.531,84,50,82.145,50,78s7.531-6,14.995-6s14.994,1.855,14.994,6S72.458,84,64.995,84z M64.995,74C57.83,74,52,75.794,52,78s5.83,4,12.995,4s12.994-1.794,12.994-4S72.16,74,64.995,74z"/><ellipse cx="35.006" cy="78" fill="#f497b0" rx="13.994" ry="5"/><path fill="#1f212b" d="M35.005,84c-7.463,0-14.994-1.855-14.994-6s7.531-6,14.994-6S50,73.855,50,78S42.469,84,35.005,84z M35.005,74c-7.165,0-12.994,1.794-12.994,4s5.829,4,12.994,4S48,80.206,48,78S42.17,74,35.005,74z"/><path fill="#f497b0" d="M59.656,22.598c-1.58-2.837-5.209-4.823-9.438-4.823c-3.333,0-6.505,1.74-8.487,4.389 C29.186,25.754,20,37.3,20,51c0,16.569,13.431,30,30,30s30-13.431,30-30C80,37.811,71.485,26.618,59.656,22.598z"/><path fill="#1f212b" d="M50,82c-17.093,0-31-13.907-31-31c0-13.649,9.087-25.816,22.139-29.706 c2.248-2.836,5.617-4.52,9.08-4.52c4.301,0,8.22,1.951,10.112,4.999C72.709,26.146,81,37.844,81,51C81,68.093,67.093,82,50,82z M50.219,18.774c-2.9,0-5.845,1.528-7.686,3.988c-0.131,0.175-0.315,0.302-0.525,0.362C29.639,26.665,21,38.128,21,51 c0,15.991,13.009,29,29,29s29-13.009,29-29c0-12.424-7.903-23.458-19.666-27.456c-0.235-0.08-0.431-0.244-0.552-0.46 C57.325,20.466,53.963,18.775,50.219,18.774z"/><path fill="#1f212b" d="M50,63.442c-2.381,0-4.596-1.183-5.923-3.164c-0.154-0.229-0.092-0.54,0.137-0.694 c0.229-0.153,0.539-0.092,0.694,0.137c1.141,1.703,3.044,2.72,5.092,2.72s3.951-1.017,5.092-2.721 c0.155-0.229,0.464-0.291,0.694-0.137c0.229,0.154,0.291,0.464,0.137,0.694C54.596,62.26,52.382,63.442,50,63.442z"/><g><path fill="#656566" d="M24.415,35.333c2.152-3.507,5.008-6.533,8.367-8.893c-2.13-2.575-5.233-4.321-8.643-4.796 c-2.119,4.008-2.326,8.822-0.417,12.526C23.93,34.576,24.17,34.956,24.415,35.333z"/><path fill="#1f212b" d="M24.415,35.833c-0.169,0-0.327-0.085-0.419-0.228c-0.243-0.373-0.499-0.778-0.719-1.206 c-1.963-3.808-1.802-8.786,0.42-12.989c0.098-0.186,0.305-0.293,0.511-0.261c3.48,0.485,6.746,2.297,8.959,4.972 c0.089,0.107,0.129,0.247,0.11,0.385s-0.094,0.263-0.208,0.343c-3.338,2.345-6.106,5.287-8.229,8.745 c-0.09,0.146-0.248,0.236-0.419,0.238C24.419,35.833,24.417,35.833,24.415,35.833z M24.419,22.193 c-1.917,3.849-2.02,8.32-0.253,11.749c0.079,0.152,0.162,0.301,0.25,0.452c2.034-3.13,4.595-5.83,7.628-8.042 C30.081,24.177,27.344,22.683,24.419,22.193z"/></g><g><path fill="#1f212b" d="M51.232,36.857c-0.046,0-0.094-0.006-0.141-0.021c-0.265-0.078-0.417-0.356-0.338-0.621 c0.924-3.143,2.705-3.859,4.427-4.552c1.376-0.553,2.675-1.076,3.646-2.875c0.131-0.243,0.435-0.335,0.677-0.203 c0.243,0.131,0.334,0.434,0.203,0.677c-1.142,2.118-2.742,2.761-4.152,3.329c-1.638,0.659-3.053,1.229-3.841,3.907 C51.648,36.716,51.449,36.857,51.232,36.857z"/></g><g><path fill="#1f212b" d="M49.536,42.839c-1.171,0-2.333-0.239-3.391-0.738c-2.789-1.316-4.999-4.285-6.063-8.144 c-1.193-4.326-0.695-8.504,1.368-11.464c0.157-0.227,0.469-0.283,0.696-0.125c0.227,0.158,0.282,0.469,0.125,0.696 c-1.892,2.715-2.338,6.589-1.224,10.627c0.986,3.577,3,6.313,5.525,7.505c2.889,1.362,6.818,0.443,8.95-2.094 c0.904-1.076,1.402-2.394,1.402-3.711c0-1.101-0.343-2.193-0.992-3.159c-0.076-0.113-0.103-0.251-0.074-0.384 c0.028-0.133,0.11-0.249,0.225-0.32c2.213-1.373,3.482-3.402,3.482-5.566c0-0.937-0.233-1.847-0.693-2.707 c-0.13-0.243-0.039-0.546,0.205-0.677c0.244-0.13,0.546-0.038,0.677,0.205c0.539,1.006,0.812,2.075,0.812,3.178 c0,2.375-1.282,4.59-3.536,6.142c0.586,1.022,0.895,2.148,0.895,3.287c0,1.552-0.581,3.099-1.636,4.355 C54.616,41.735,52.054,42.839,49.536,42.839z"/></g><g><ellipse cx="35" cy="52" fill="#eeecd9" rx="7.5" ry="8"/><path fill="#1f212b" d="M35,60.5c-4.411,0-8-3.813-8-8.5s3.589-8.5,8-8.5s8,3.813,8,8.5S39.411,60.5,35,60.5z M35,44.5 c-3.86,0-7,3.364-7,7.5s3.14,7.5,7,7.5s7-3.364,7-7.5S38.86,44.5,35,44.5z"/></g><g><ellipse cx="35" cy="52" fill="#39c1d7" rx="5.5" ry="6"/><path fill="#1f212b" d="M35,58.5c-3.309,0-6-2.916-6-6.5s2.691-6.5,6-6.5s6,2.916,6,6.5S38.309,58.5,35,58.5z M35,46.5 c-2.757,0-5,2.467-5,5.5s2.243,5.5,5,5.5s5-2.467,5-5.5S37.757,46.5,35,46.5z"/></g><g><ellipse cx="35" cy="49" fill="#eeecd9" rx="1.375" ry="1.5"/><path fill="#1f212b" d="M35,51c-1.034,0-1.875-0.897-1.875-2s0.841-2,1.875-2s1.875,0.897,1.875,2S36.034,51,35,51z M35,48 c-0.482,0-0.875,0.449-0.875,1s0.393,1,0.875,1s0.875-0.449,0.875-1S35.482,48,35,48z"/></g><g><ellipse cx="65" cy="52" fill="#eeecd9" rx="7.5" ry="8"/><path fill="#1f212b" d="M65,60.5c-4.411,0-8-3.813-8-8.5s3.589-8.5,8-8.5s8,3.813,8,8.5S69.411,60.5,65,60.5z M65,44.5 c-3.86,0-7,3.364-7,7.5s3.14,7.5,7,7.5s7-3.364,7-7.5S68.86,44.5,65,44.5z"/></g><g><ellipse cx="65" cy="52" fill="#39c1d7" rx="5.5" ry="6"/><path fill="#1f212b" d="M65,58.5c-3.309,0-6-2.916-6-6.5s2.691-6.5,6-6.5s6,2.916,6,6.5S68.309,58.5,65,58.5z M65,46.5 c-2.757,0-5,2.467-5,5.5s2.243,5.5,5,5.5s5-2.467,5-5.5S67.757,46.5,65,46.5z"/></g><g><ellipse cx="65" cy="49" fill="#eeecd9" rx="1.375" ry="1.5"/><path fill="#1f212b" d="M65,51c-1.034,0-1.875-0.897-1.875-2s0.841-2,1.875-2s1.875,0.897,1.875,2S66.034,51,65,51z M65,48 c-0.482,0-0.875,0.449-0.875,1s0.393,1,0.875,1s0.875-0.449,0.875-1S65.482,48,65,48z"/></g></svg>