<svg xmlns="http://www.w3.org/2000/svg" viewBox="0 0 100 100"><path fill="#fefdef" d="M77.551,48.787C79.176,49.544,80,50.474,80,51.549c0,1.785-0.79,5.257-1.573,7.906L78.21,60.2c-0.717,2.484-1.457,5.05-3.685,5.685L74,66v6c0,3.75-10.5,18-24,18S26,75.75,26,72v-6l-0.526-0.115c-2.228-0.635-2.968-3.2-3.685-5.685l-0.217-0.745C20.79,56.806,20,53.334,20,51.549c0-1.075,0.824-2.005,2.449-2.762C22.449,48.787,21,17,51,17S77.551,48.787,77.551,48.787z"/><path fill="#1f212b" d="M50,91c-13.751,0-25-14.345-25-19v-5.22c-2.614-0.906-3.44-3.768-4.171-6.302l-0.216-0.743C19.869,57.219,19,53.562,19,51.549c0-1.459,0.966-2.668,2.871-3.594l0.629,1.822c-0.796,0.387-1.5,0.989-1.5,1.772c0,1.675,0.794,5.125,1.532,7.623l0.218,0.749c0.671,2.325,1.304,4.519,2.999,5.002l0.466,0.1C26.673,65.124,27,65.53,27,66v6c0,3.332,10.333,17,23,17s23-13.668,23-17v-6c0-0.47,0.327-0.876,0.786-0.977l0.526-0.115c1.634-0.468,2.268-2.662,2.938-4.985l0.218-0.747C78.206,56.674,79,53.224,79,51.549c0-0.578-0.503-1.14-1.496-1.669l0.94-1.765C80.557,49.241,81,50.604,81,51.549c0,2.013-0.869,5.67-1.614,8.189l-0.216,0.741c-0.735,2.55-1.568,5.435-4.17,6.305V72C75,76.655,63.751,91,50,91z"/><path fill="#70b570" d="M88,56.027c0-7-3-11.25-7-16c4-12-0.75-33-31-33s-35,21-31,33c-4,4.75-7,9-7,16c0,6.75,5,7,5,13 c0,7-4,7-4,12c0,8,8,10,14,10c-2.5-1.5-5-4-5-7.5s4-5.5,4-8.75c0-0.75,0-7,0-8.777c-1,0-2.25-0.973-3-2.473c-0.75-1.5-2.5-7-3-10.5 s2-4,2-4l5.113-5.765C28.332,41.819,29,39.991,29,38.102v-5.075c0-5.523,4.477-10,10-10h11h11c5.523,0,10,4.477,10,10v5.075 c0,1.889,0.668,3.717,1.887,5.161L78,49.027c0,0,2.5,0.5,2,4s-2.25,9-3,10.5C76.25,65.027,75,66,74,66c0,1.777,0,8.027,0,8.777 c0,3.25,4,5.25,4,8.75s-2.5,6-5,7.5c6,0,14-2,14-10c0-5-4-5-4-12C83,63.027,88,62.777,88,56.027z"/><path fill="#1f212b" d="M73,92.027c-0.449,0-0.844-0.3-0.964-0.733c-0.12-0.433,0.063-0.893,0.449-1.124 C74.172,89.158,77,86.95,77,83.527c0-1.451-0.902-2.663-1.857-3.946C74.089,78.166,73,76.703,73,74.777V66c0-0.553,0.447-1,1-1 c0.476,0,1.443-0.596,2.105-1.92c0.677-1.353,2.406-6.709,2.904-10.194c0.362-2.534-1.142-2.865-1.206-2.878 c-0.214-0.043-0.407-0.154-0.552-0.317l-5.113-5.764C70.754,42.287,70,40.224,70,38.101v-5.074c0-4.963-4.037-9-9-9H39 c-4.963,0-9,4.037-9,9v5.074c0,2.123-0.754,4.186-2.123,5.807l-5.129,5.782c-0.145,0.163-0.338,0.274-0.552,0.317 c-0.247,0.06-1.547,0.497-1.206,2.878c0.498,3.485,2.228,8.842,2.904,10.194C24.557,64.404,25.524,65,26,65c0.553,0,1,0.447,1,1 v8.777c0,1.926-1.089,3.389-2.143,4.804C23.902,80.864,23,82.076,23,83.527c0,3.423,2.828,5.631,4.515,6.643 c0.386,0.231,0.569,0.691,0.449,1.124c-0.12,0.434-0.515,0.733-0.964,0.733c-3.519,0-15-0.793-15-11 c0-2.597,0.977-4.04,1.921-5.437C14.942,74.078,16,72.514,16,69.027c0-2.576-1.014-3.917-2.188-5.47 C12.494,61.813,11,59.837,11,56.027c0-7.223,3.083-11.671,6.88-16.221c-1.823-5.966-1.835-14.734,3.47-22.095 C25.191,12.382,33.281,6.027,50,6.027s24.809,6.354,28.65,11.685c5.305,7.36,5.293,16.129,3.47,22.095 c3.797,4.55,6.88,8.998,6.88,16.221c0,3.81-1.494,5.786-2.812,7.53C85.014,65.11,84,66.451,84,69.027 c0,3.487,1.058,5.051,2.079,6.563C87.023,76.987,88,78.43,88,81.027C88,91.234,76.519,92.027,73,92.027z M75,66.812v7.965 c0,1.264,0.849,2.403,1.746,3.609C77.803,79.805,79,81.413,79,83.527c0,2.736-1.324,4.822-2.818,6.305 C80.47,89.291,86,87.363,86,81.027c0-1.983-0.696-3.014-1.577-4.316C83.287,75.031,82,73.127,82,69.027 c0-3.247,1.317-4.99,2.592-6.676C85.83,60.714,87,59.166,87,56.027c0-6.783-2.932-10.805-6.765-15.355 c-0.225-0.267-0.294-0.631-0.184-0.961c1.832-5.498,2.001-13.858-3.023-20.829C71.91,11.78,62.563,8.027,50,8.027 S28.09,11.78,22.972,18.882c-5.024,6.971-4.855,15.331-3.023,20.829c0.11,0.33,0.041,0.694-0.184,0.961 C15.932,45.222,13,49.244,13,56.027c0,3.139,1.17,4.687,2.408,6.324C16.683,64.037,18,65.78,18,69.027 c0,4.1-1.287,6.004-2.423,7.684C14.696,78.014,14,79.044,14,81.027c0,6.336,5.53,8.264,9.818,8.805 C22.324,88.349,21,86.264,21,83.527c0-2.114,1.197-3.722,2.254-5.141C24.151,77.18,25,76.041,25,74.777v-7.965 c-1.112-0.406-2.198-1.446-2.895-2.838c-0.838-1.676-2.595-7.302-3.096-10.806c-0.453-3.178,1.232-4.605,2.436-5.023l4.92-5.547 C27.414,41.356,28,39.753,28,38.101v-5.074c0-6.065,4.935-11,11-11h22c6.065,0,11,4.935,11,11v5.074 c0,1.651,0.586,3.255,1.65,4.516l4.904,5.528c1.203,0.418,2.889,1.846,2.436,5.023c-0.501,3.504-2.258,9.13-3.096,10.806 C77.198,65.366,76.112,66.406,75,66.812z"/><path fill="#1f212b" d="M50.5,16.027c-0.276,0-0.5-0.224-0.5-0.5v-8.5c0-0.276,0.224-0.5,0.5-0.5s0.5,0.224,0.5,0.5v8.5C51,15.804,50.776,16.027,50.5,16.027z"/><path fill="#1f212b" d="M41.5,17.027c-0.225,0-0.429-0.151-0.485-0.379l-0.12-0.489c-0.176-0.728-0.304-1.253-0.603-1.93c-0.111-0.253,0.004-0.548,0.256-0.66c0.255-0.109,0.548,0.003,0.66,0.256c0.334,0.759,0.478,1.35,0.659,2.099l0.118,0.482c0.066,0.268-0.096,0.539-0.364,0.606C41.581,17.022,41.54,17.027,41.5,17.027z"/><path fill="#1f212b" d="M39.396,12.027c-0.158,0-0.314-0.075-0.412-0.216c-0.697-1.013-1.56-1.905-2.796-2.894c-0.216-0.173-0.25-0.487-0.078-0.703C36.282,8,36.596,7.966,36.812,8.137c1.315,1.053,2.239,2.011,2.995,3.106c0.156,0.228,0.099,0.539-0.128,0.696C39.593,11.999,39.494,12.027,39.396,12.027z"/><path fill="#1f212b" d="M33.5,20.027c-0.215,0-0.414-0.14-0.479-0.356c-0.726-2.416-3.471-4.785-5.707-5.68c-0.257-0.103-0.381-0.394-0.278-0.649s0.394-0.382,0.649-0.278c2.423,0.969,5.451,3.513,6.293,6.32c0.08,0.265-0.07,0.543-0.335,0.622C33.596,20.02,33.548,20.027,33.5,20.027z"/><path fill="#1f212b" d="M24.5,25.027c-0.146,0-0.292-0.064-0.391-0.188c-0.883-1.104-2.957-2.068-3.768-2.338c-0.262-0.088-0.403-0.371-0.316-0.633c0.088-0.262,0.371-0.402,0.633-0.316c0.744,0.248,3.118,1.27,4.232,2.662c0.172,0.216,0.138,0.53-0.078,0.703C24.72,24.991,24.609,25.027,24.5,25.027z"/><path fill="#1f212b" d="M23.5,34.027H18c-0.276,0-0.5-0.224-0.5-0.5s0.224-0.5,0.5-0.5h5.5c0.276,0,0.5,0.224,0.5,0.5S23.776,34.027,23.5,34.027z"/><path fill="#1f212b" d="M59.5,17.027c-0.04,0-0.08-0.005-0.121-0.015c-0.268-0.067-0.431-0.339-0.364-0.606c0.293-1.171,0.628-2.179,1.025-3.081c0.112-0.252,0.405-0.365,0.66-0.256c0.252,0.112,0.367,0.407,0.255,0.66c-0.374,0.85-0.691,1.805-0.97,2.919C59.929,16.876,59.725,17.027,59.5,17.027z"/><path fill="#1f212b" d="M61.604,12.027c-0.099,0-0.197-0.028-0.284-0.088c-0.227-0.157-0.284-0.469-0.128-0.696c0.756-1.096,1.68-2.054,2.995-3.106C64.404,7.966,64.719,8,64.891,8.215c0.172,0.216,0.138,0.53-0.078,0.703c-1.236,0.988-2.099,1.881-2.796,2.894C61.919,11.952,61.763,12.027,61.604,12.027z"/><path fill="#1f212b" d="M67.5,20.027c-0.048,0-0.096-0.007-0.144-0.021c-0.265-0.079-0.415-0.357-0.335-0.622c0.159-0.53,0.404-1.073,0.729-1.614c0.144-0.237,0.45-0.311,0.687-0.171c0.236,0.143,0.313,0.449,0.171,0.687c-0.282,0.47-0.494,0.936-0.63,1.386C67.914,19.888,67.715,20.027,67.5,20.027z"/><path fill="#1f212b" d="M69.541,16.769c-0.124,0-0.249-0.046-0.346-0.139c-0.199-0.191-0.206-0.508-0.016-0.707c1.191-1.244,2.698-2.287,4.135-2.86c0.256-0.104,0.547,0.021,0.649,0.278s-0.021,0.547-0.278,0.649c-1.309,0.523-2.688,1.479-3.783,2.624C69.804,16.718,69.673,16.769,69.541,16.769z"/><path fill="#1f212b" d="M75.5,25.027c-0.11,0-0.22-0.036-0.312-0.109c-0.216-0.173-0.25-0.487-0.078-0.703c1.114-1.393,3.488-2.414,4.232-2.662c0.264-0.087,0.545,0.055,0.633,0.316c0.087,0.262-0.055,0.545-0.316,0.633c-0.811,0.27-2.885,1.233-3.768,2.338C75.792,24.963,75.646,25.027,75.5,25.027z"/><path fill="#1f212b" d="M82,34.027h-5.5c-0.276,0-0.5-0.224-0.5-0.5s0.224-0.5,0.5-0.5H82c0.276,0,0.5,0.224,0.5,0.5S82.276,34.027,82,34.027z"/><ellipse cx="50" cy="66.527" fill="#f05b6c" rx="5.5" ry="3"/><path fill="#1f212b" d="M50,70.027c-3.364,0-6-1.537-6-3.5s2.636-3.5,6-3.5s6,1.537,6,3.5S53.364,70.027,50,70.027z M50,64.027c-2.71,0-5,1.145-5,2.5s2.29,2.5,5,2.5s5-1.145,5-2.5S52.71,64.027,50,64.027z"/><path fill="#1f212b" d="M78.5,50.027c-0.276,0-0.5-0.224-0.5-0.5v-5c0-0.276,0.224-0.5,0.5-0.5s0.5,0.224,0.5,0.5v5C79,49.804,78.776,50.027,78.5,50.027z"/><path fill="#1f212b" d="M21.5,50.027c-0.276,0-0.5-0.224-0.5-0.5v-5c0-0.276,0.224-0.5,0.5-0.5s0.5,0.224,0.5,0.5v5C22,49.804,21.776,50.027,21.5,50.027z"/><path fill="#78a1d1" d="M52.5,51.527c3.5-1.5,8.5-5.5,9-10c1.5,2.5,6.5,7.5,9,10c-5.5,4.5-7.5,8.5-9,13 C60,60.027,57,56.027,52.5,51.527z"/><path fill="#1f212b" d="M61.5,65.027c-0.215,0-0.406-0.138-0.475-0.342c-1.375-4.127-4.031-7.957-8.879-12.805 c-0.117-0.117-0.169-0.285-0.138-0.448s0.142-0.3,0.294-0.365c3.328-1.426,8.229-5.346,8.7-9.596 c0.023-0.213,0.181-0.387,0.391-0.433c0.208-0.046,0.425,0.047,0.535,0.231c1.469,2.447,6.505,7.483,8.925,9.903 c0.1,0.1,0.153,0.237,0.146,0.379c-0.007,0.141-0.073,0.272-0.183,0.361c-5.25,4.296-7.275,8.071-8.842,12.771 C61.906,64.889,61.715,65.027,61.5,65.027z M53.357,51.681c4.149,4.223,6.66,7.722,8.132,11.368 c1.505-4.06,3.654-7.675,8.27-11.557c-2.363-2.365-6.115-6.152-7.998-8.693C60.637,46.852,56.384,50.19,53.357,51.681z"/><path fill="#78a1d1" d="M29.5,51.527c2.5-2.5,7.5-7.5,9-10c0.5,4.5,5.5,8.5,9,10c-5.5,4.5-7.5,8.5-9,13 C37,60.027,34,56.027,29.5,51.527z"/><path fill="#1f212b" d="M38.5,65.027c-0.215,0-0.406-0.138-0.475-0.342c-1.375-4.127-4.031-7.957-8.879-12.805 c-0.195-0.195-0.195-0.512,0-0.707c2.42-2.42,7.456-7.456,8.925-9.903c0.11-0.185,0.328-0.278,0.535-0.231 c0.21,0.046,0.367,0.22,0.391,0.433c0.472,4.25,5.372,8.17,8.7,9.596c0.16,0.069,0.273,0.217,0.298,0.39 c0.024,0.174-0.043,0.347-0.179,0.457c-5.25,4.296-7.275,8.071-8.842,12.771C38.906,64.889,38.715,65.027,38.5,65.027z M30.206,51.528c4.24,4.291,6.793,7.831,8.283,11.521c1.484-4.006,3.598-7.578,8.086-11.401c-3.022-1.508-7.221-4.825-8.336-8.849 C36.348,45.353,32.566,49.166,30.206,51.528z"/><path fill="#1f212b" d="M75.5,90.527c-0.198,0-0.386-0.119-0.464-0.314c-0.103-0.256,0.021-0.547,0.278-0.649C77.281,88.776,81,86.085,81,81.527c0-0.276,0.224-0.5,0.5-0.5s0.5,0.224,0.5,0.5c0,4.424-3.273,7.748-6.314,8.964C75.625,90.515,75.562,90.527,75.5,90.527z"/><path fill="#1f212b" d="M24.5,90.527c-2.203,0-7.966-2.365-8.498-7.952c-0.026-0.275,0.176-0.52,0.45-0.546c0.273-0.008,0.519,0.174,0.546,0.45c0.465,4.881,5.621,7.048,7.502,7.048c0.276,0,0.5,0.224,0.5,0.5S24.776,90.527,24.5,90.527z"/><path fill="#1f212b" d="M41.293,39.734c-0.126-0.157-0.501-0.409-0.818-0.592c-0.34-0.191-0.7-0.371-1.075-0.511c-0.746-0.292-1.535-0.486-2.322-0.539c-0.785-0.05-1.579,0.031-2.292,0.337c-0.717,0.296-1.347,0.79-1.886,1.399L32.88,39.85c-0.183,0.207-0.499,0.226-0.705,0.043c-0.193-0.171-0.221-0.461-0.074-0.666c0.556-0.772,1.275-1.466,2.154-1.93c0.875-0.475,1.873-0.675,2.842-0.705c0.975-0.027,1.936,0.116,2.86,0.38c0.465,0.127,0.916,0.298,1.366,0.497c0.459,0.226,0.87,0.398,1.386,0.851l0.033,0.029c0.417,0.367,0.458,1.002,0.091,1.419c-0.367,0.417-1.002,0.458-1.419,0.091C41.37,39.822,41.328,39.777,41.293,39.734z"/><path fill="#1f212b" d="M57.293,38.32c0.515-0.453,0.927-0.625,1.386-0.851c0.449-0.199,0.901-0.371,1.366-0.497c0.924-0.263,1.885-0.407,2.86-0.38c0.969,0.03,1.967,0.23,2.842,0.705c0.879,0.464,1.598,1.158,2.154,1.93c0.161,0.224,0.11,0.536-0.114,0.697c-0.209,0.151-0.496,0.116-0.665-0.072L67.1,39.827c-0.539-0.609-1.169-1.102-1.886-1.399c-0.713-0.306-1.508-0.387-2.292-0.337c-0.787,0.053-1.576,0.247-2.322,0.539c-0.375,0.14-0.735,0.32-1.075,0.511c-0.317,0.183-0.692,0.435-0.818,0.592c-0.348,0.433-0.981,0.501-1.414,0.153c-0.433-0.348-0.501-0.981-0.153-1.414c0.036-0.044,0.074-0.085,0.115-0.121L57.293,38.32z"/><path fill="#f05b6c" d="M50,73.527c-2.25,0-13,0.5-18.75-8.25C32.5,71.527,38,84.527,50,84.527s17.5-13,18.75-19.25 C63,74.027,52.25,73.527,50,73.527z"/><path fill="#1f212b" d="M50,85.027c-12.11,0-17.881-12.854-19.24-19.652c-0.047-0.234,0.079-0.47,0.301-0.561 s0.477-0.013,0.607,0.188c3.546,5.397,9.561,8.095,17.979,8.026L50,73.027l0.354,0.002c0.106,0.001,0.214,0.002,0.32,0.002 c8.218,0,14.157-2.7,17.658-8.028c0.131-0.201,0.387-0.279,0.607-0.188c0.222,0.091,0.348,0.326,0.301,0.561 C67.881,72.173,62.11,85.027,50,85.027z M32.325,67.519C34.326,74.264,39.8,84.027,50,84.027s15.674-9.765,17.675-16.509 c-3.841,4.388-9.647,6.613-17.33,6.511L50,74.027l-0.345,0.002C41.997,74.116,36.165,71.906,32.325,67.519z"/><g><path d="M62.5,72.527c-1.389,3.5-5.556,8-12.5,8s-11.111-4.5-12.5-8c4.5,2.5,9.269,3,12.5,3C53.213,75.527,58,75.027,62.5,72.527z"/><path d="M50,81.027c-6.677,0-11.322-4.177-12.965-8.315c-0.078-0.196-0.023-0.421,0.135-0.561c0.159-0.14,0.388-0.163,0.573-0.062 c4.369,2.428,9.077,2.938,12.257,2.938s7.888-0.51,12.257-2.938c0.186-0.102,0.414-0.078,0.573,0.062 c0.158,0.14,0.213,0.364,0.135,0.561C61.322,76.85,56.677,81.027,50,81.027z M38.608,73.654c1.633,2.813,5.302,6.373,11.392,6.373 s9.759-3.56,11.392-6.373c-4.15,1.94-8.418,2.373-11.392,2.373S42.759,75.595,38.608,73.654z"/></g><g><path fill="#fff" d="M58.75,74.277c-0.832,1.82-4.565,4.25-8.753,4.25c-4.297,0-8.043-2.36-8.747-4.25 c2.487,0.9,5.557,1.25,8.747,1.25C53.17,75.527,56.281,75.137,58.75,74.277z"/><path d="M49.997,79.027c-4.427,0-8.41-2.411-9.216-4.575l-0.377-1.013l1.016,0.368c2.236,0.81,5.122,1.22,8.577,1.22 c3.321,0,6.292-0.423,8.589-1.223l1.105-0.385l-0.486,1.065C58.223,76.634,54.2,79.027,49.997,79.027z M42.46,75.179 c1.362,1.398,4.25,2.849,7.537,2.849c3.162,0,6.017-1.427,7.459-2.84c-2.142,0.552-4.687,0.84-7.459,0.84 C47.092,76.027,44.564,75.742,42.46,75.179z"/></g><path fill="#1f212b" d="M39,54.027c0-0.552,0.448-1,1-1c0.432,0,0.791,0.277,0.931,0.66c0.346-0.405,0.632-0.884,0.819-1.432l-6.505-2.214c-0.699,2.053,0.191,4.213,1.987,4.824c0.715,0.243,1.463,0.195,2.152-0.069C39.156,54.612,39,54.343,39,54.027z"/><path fill="#1f212b" d="M62.75,54.027c0-0.552,0.448-1,1-1c0.303,0,0.565,0.142,0.748,0.354c0.527-0.939,0.668-2.153,0.263-3.341l-6.505,2.214c0.699,2.053,2.722,3.221,4.518,2.61c0.097-0.033,0.18-0.087,0.271-0.129C62.863,54.555,62.75,54.305,62.75,54.027z"/></svg>