<svg xmlns="http://www.w3.org/2000/svg" viewBox="0 0 100 100"><ellipse cx="54.166" cy="81.836" fill="#f8e55b" rx="3.023" ry="7.932" transform="rotate(-68.242 54.165 81.832)"/><path fill="#1f212b" d="M58.719,86.896c-1.82,0-4.032-0.516-6.097-1.346c-3.369-1.354-5.926-3.31-6.675-5.104 c-0.365-0.873-0.235-1.547-0.063-1.958v0c1.02-2.425,5.715-2.021,9.826-0.367c3.369,1.354,5.926,3.31,6.675,5.104 c0.364,0.874,0.235,1.547,0.062,1.958C61.94,86.39,60.522,86.896,58.719,86.896z M47.729,79.264 c-0.034,0.082-0.011,0.232,0.064,0.413c0.429,1.028,2.357,2.724,5.575,4.018c4.254,1.711,7,1.275,7.235,0.713 c0.035-0.083,0.011-0.233-0.064-0.414c-0.429-1.028-2.357-2.724-5.575-4.018C50.711,78.265,47.965,78.7,47.729,79.264 L47.729,79.264z"/><ellipse cx="33.84" cy="81.836" fill="#f8e55b" rx="7.932" ry="3.023" transform="rotate(-21.758 33.837 81.83)"/><path fill="#1f212b" d="M29.287,86.896c-1.804,0-3.221-0.506-3.729-1.714c-0.173-0.411-0.302-1.084,0.062-1.958 c0.749-1.793,3.306-3.749,6.675-5.104c4.113-1.653,8.807-2.057,9.826,0.367v0c0.173,0.411,0.302,1.085-0.063,1.958 c-0.749,1.793-3.306,3.749-6.675,5.104C33.319,86.381,31.106,86.896,29.287,86.896z M38.395,78.765 c-1.259,0-3.093,0.303-5.354,1.212c-3.218,1.294-5.146,2.99-5.575,4.018c-0.075,0.181-0.099,0.331-0.064,0.414 c0.236,0.562,2.982,0.997,7.235-0.713c3.218-1.294,5.146-2.99,5.575-4.018c0.075-0.181,0.099-0.331,0.064-0.413l0,0 C40.167,79,39.504,78.765,38.395,78.765z"/><path fill="#f8e55b" d="M56.979,71.149c0.33,0.124,6.694-0.643,6.694-0.643l0.12-3.534l11.592-1.179l-3.356-13.975 l11.956-0.065l6.079-18.736L58.9,39.694l7.738,18.336l-7.767,1.001l0.028,8.539l-2.42,1.068"/><path fill="#1f212b" d="M57.157,72.154c-0.348,0-0.441-0.035-0.53-0.069c-0.517-0.194-0.779-0.771-0.584-1.288 c0.172-0.457,0.645-0.713,1.104-0.634c0.505,0.001,3.052-0.255,5.556-0.548l0.09-2.676c0.017-0.5,0.401-0.911,0.898-0.961 l10.454-1.063l-3.088-12.862c-0.071-0.297-0.003-0.61,0.185-0.85c0.188-0.241,0.477-0.382,0.782-0.383l11.233-0.061l5.321-16.399 l-28.287,6.06l7.269,17.222c0.122,0.288,0.102,0.616-0.054,0.887c-0.156,0.271-0.429,0.453-0.739,0.493l-6.892,0.888l0.025,7.656 c0.001,0.397-0.233,0.758-0.596,0.918l-2.42,1.068c-0.507,0.221-1.097-0.007-1.319-0.511c-0.223-0.505,0.006-1.096,0.511-1.319 l1.822-0.804l-0.026-7.884c-0.001-0.504,0.372-0.931,0.872-0.995l6.461-0.833l-7.227-17.123c-0.116-0.274-0.103-0.586,0.035-0.851 s0.386-0.454,0.677-0.516l31.164-6.677c0.352-0.072,0.712,0.042,0.952,0.308c0.239,0.266,0.319,0.639,0.208,0.979l-6.079,18.736 c-0.133,0.41-0.514,0.689-0.946,0.691l-10.694,0.058l3.061,12.748c0.067,0.28,0.01,0.577-0.156,0.812 c-0.167,0.235-0.428,0.387-0.715,0.416l-10.724,1.091l-0.09,2.661c-0.017,0.493-0.39,0.9-0.88,0.959 C59.443,72.023,57.828,72.154,57.157,72.154z"/><polygon fill="#f16e7c" points="66.979,66.383 69.102,63.624 66.128,62.128 66.419,60.484 61.872,58.809 58.876,60.364 61.702,67"/><path fill="#1f212b" d="M61.702,67.5c-0.199,0-0.381-0.118-0.46-0.304l-2.826-6.636c-0.103-0.24-0.002-0.519,0.229-0.64 l2.996-1.555c0.126-0.065,0.271-0.073,0.403-0.025l4.547,1.675c0.227,0.084,0.362,0.318,0.319,0.557l-0.227,1.276l2.642,1.329 c0.133,0.067,0.229,0.19,0.263,0.335s0,0.298-0.091,0.417l-2.123,2.759c-0.083,0.106-0.205,0.176-0.338,0.191l-5.276,0.617 C61.741,67.499,61.721,67.5,61.702,67.5z M59.518,60.595l2.498,5.865l4.695-0.549l1.625-2.112l-2.434-1.224 c-0.198-0.1-0.306-0.316-0.268-0.534l0.219-1.231l-3.948-1.455L59.518,60.595z M66.979,66.383h0.01H66.979z"/><path fill="#1f212b" d="M82.066,39.231c-0.231,0-0.438-0.161-0.488-0.395c-0.058-0.27,0.114-0.536,0.384-0.594l1.629-0.349 c0.27-0.061,0.536,0.114,0.594,0.384s-0.114,0.536-0.384,0.594l-1.629,0.349C82.136,39.228,82.101,39.231,82.066,39.231z"/><path fill="#1f212b" d="M68.211,42.199c-0.231,0-0.438-0.161-0.488-0.395c-0.058-0.27,0.114-0.536,0.384-0.594l11.672-2.501 c0.27-0.061,0.536,0.114,0.594,0.384s-0.114,0.536-0.384,0.594l-11.672,2.501C68.281,42.196,68.246,42.199,68.211,42.199z"/><path fill="#f8e55b" d="M75.681,11.424c-8.943,0.873-16.787,5.456-21.938,12.184c-2.748-1.352-6.104-2.156-9.74-2.156 c-3.717,0-7.14,0.842-9.921,2.249C29.579,16.68,22.306,11.5,13.622,9.803c2.331,7.909,7.767,14.589,15.016,18.563 c-0.905,1.419-1.416,2.984-1.416,4.633l0.008,2.281c0.009,2.502-0.508,4.955-1.133,7.383c-0.158,0.612-0.24,1.241-0.24,1.882 c0,2.013,0.813,3.904,2.236,5.552c-0.806,4.71-2.093,8.13-3.79,15.095l0.012,0.003c-0.346,1.132-0.544,2.445-0.544,3.983 c0,7.257,4.186,13.14,9.35,13.14c0.576,0,1.137-0.084,1.684-0.224c7.29-2.052,11.509-2.183,18.098-0.077 c0.054,0.016,0.108,0.034,0.162,0.049c0.124,0.04,0.235,0.066,0.36,0.108l0.017-0.027c0.471,0.103,0.949,0.172,1.44,0.172 c5.164,0,9.35-5.883,9.35-13.14c0-1.872-0.425-3.158-0.785-4.699c-1.694-6.607-2.726-10.296-3.358-14.606 c1.308-1.595,2.058-3.405,2.058-5.329c0-0.641-0.082-1.269-0.24-1.882c-0.626-2.428-1.142-4.881-1.133-7.384l0.008-2.281 c0-1.672-0.528-3.257-1.457-4.692C66.75,25.006,72.654,18.95,75.681,11.424z"/><path fill="#1f212b" d="M54.883,82.819c-0.375,0-0.77-0.038-1.199-0.114l-0.025,0.041l-0.847-0.233 c-6.349-2.028-10.509-2.009-17.871,0.064c-0.641,0.164-1.233,0.243-1.819,0.243c-5.432,0-9.851-6.119-9.851-13.64 c0-1.437,0.172-2.764,0.512-3.947l0.034-0.157c0.69-2.833,1.313-5.081,1.861-7.064c0.786-2.837,1.411-5.095,1.881-7.769 c-1.442-1.741-2.204-3.706-2.204-5.696c0-0.673,0.086-1.348,0.255-2.006c0.586-2.273,1.126-4.726,1.118-7.257L26.722,33 c0-1.536,0.41-3.031,1.221-4.451c-7.124-4.06-12.504-10.813-14.8-18.605l-0.233-0.79l0.808,0.158 c8.377,1.637,15.838,6.637,20.541,13.746c2.889-1.379,6.247-2.105,9.744-2.105c3.432,0,6.738,0.701,9.592,2.031 c5.366-6.824,13.375-11.211,22.038-12.057l0.819-0.08l-0.307,0.764c-3.013,7.494-8.717,13.482-16.097,16.918 c0.821,1.428,1.236,2.929,1.236,4.47l-0.008,2.283c-0.009,2.531,0.532,4.983,1.118,7.257c0.169,0.658,0.255,1.333,0.255,2.006 c0,1.896-0.702,3.783-2.031,5.472c0.539,3.581,1.375,6.819,2.628,11.671l0.688,2.668c0.068,0.292,0.136,0.566,0.204,0.836 c0.307,1.234,0.597,2.399,0.597,3.986C64.734,76.7,60.315,82.819,54.883,82.819z M53.368,81.634l0.182,0.024 c0.502,0.11,0.926,0.161,1.333,0.161c4.88,0,8.851-5.67,8.851-12.64c0-1.464-0.275-2.572-0.567-3.745 c-0.068-0.275-0.138-0.553-0.205-0.84l-0.685-2.656c-1.287-4.981-2.136-8.271-2.682-11.992l-0.032-0.219l0.14-0.171 c1.291-1.574,1.945-3.26,1.945-5.012c0-0.589-0.075-1.18-0.224-1.757c-0.602-2.338-1.158-4.866-1.149-7.51l0.008-2.28 c0-1.521-0.463-3.008-1.376-4.418l-0.318-0.491l0.535-0.238c7.025-3.125,12.731-8.867,15.768-15.835 c-8.2,1.028-15.725,5.332-20.751,11.897l-0.25,0.326l-0.368-0.181c-2.799-1.377-6.091-2.104-9.519-2.104 c-3.505,0-6.858,0.759-9.696,2.196l-0.403,0.204l-0.244-0.38c-4.387-6.842-11.39-11.729-19.309-13.505 c2.4,7.362,7.656,13.694,14.526,17.46l0.469,0.257l-0.288,0.451c-0.887,1.391-1.337,2.859-1.337,4.364l0.008,2.28 c0.009,2.644-0.547,5.172-1.149,7.509c-0.149,0.577-0.224,1.168-0.224,1.757c0,1.817,0.731,3.624,2.115,5.225l0.154,0.178 l-0.04,0.233c-0.483,2.824-1.127,5.15-1.943,8.096c-0.516,1.865-1.098,3.965-1.739,6.564l0.027,0.008l-0.138,0.493 c-0.346,1.134-0.522,2.425-0.522,3.837c0,6.97,3.97,12.64,8.851,12.64c0.502,0,1.012-0.068,1.56-0.208 c7.571-2.132,11.866-2.149,18.374-0.069L53.368,81.634z"/><path fill="#f16e7c" d="M28.771,40.424c-0.654,0-1.265,0.161-1.818,0.425c-0.129,0.575-0.269,1.147-0.416,1.719 c-0.154,0.597-0.234,1.21-0.234,1.835c0,1.529,0.484,2.986,1.351,4.315c0.358,0.098,0.727,0.168,1.117,0.168 c2.337,0,4.231-1.894,4.231-4.231C33.002,42.318,31.108,40.424,28.771,40.424z"/><path fill="#1f212b" d="M28.771,49.385c-0.391,0-0.788-0.059-1.249-0.185l-0.183-0.05l-0.104-0.159 c-0.95-1.457-1.432-3-1.432-4.588c0-0.657,0.084-1.317,0.25-1.96c0.146-0.566,0.285-1.134,0.413-1.704l0.053-0.237l0.219-0.105 c0.657-0.314,1.341-0.474,2.034-0.474c2.609,0,4.731,2.122,4.731,4.731S31.38,49.385,28.771,49.385z M27.97,48.283 c0.294,0.07,0.552,0.103,0.801,0.103c2.057,0,3.731-1.674,3.731-3.731s-1.674-3.731-3.731-3.731c-0.467,0-0.932,0.094-1.386,0.28 c-0.114,0.498-0.236,0.994-0.364,1.489c-0.145,0.562-0.218,1.137-0.218,1.71C26.804,45.735,27.196,47.04,27.97,48.283z"/><path fill="#f16e7c" d="M55.003,44.654c0,2.337,1.894,4.231,4.231,4.231c0.389,0,0.759-0.07,1.117-0.168 c0.868-1.329,1.351-2.786,1.351-4.315c0-0.625-0.08-1.238-0.234-1.835c-0.147-0.571-0.287-1.144-0.416-1.718 c-0.553-0.265-1.164-0.425-1.818-0.425C56.897,40.424,55.003,42.318,55.003,44.654z"/><path fill="#1f212b" d="M59.234,49.385c-2.609,0-4.731-2.122-4.731-4.731s2.122-4.731,4.731-4.731 c0.693,0,1.377,0.16,2.034,0.475l0.218,0.104l0.053,0.237c0.128,0.569,0.267,1.137,0.413,1.703c0.166,0.643,0.25,1.303,0.25,1.96 c0,1.588-0.482,3.132-1.433,4.588l-0.103,0.158l-0.183,0.05C60.023,49.326,59.626,49.385,59.234,49.385z M59.234,40.923 c-2.057,0-3.731,1.674-3.731,3.731s1.674,3.731,3.731,3.731c0.25,0,0.508-0.033,0.801-0.103c0.774-1.242,1.167-2.546,1.167-3.879 c0-0.573-0.073-1.149-0.218-1.711c-0.127-0.495-0.25-0.991-0.364-1.488C60.167,41.018,59.702,40.923,59.234,40.923z"/><ellipse cx="35.709" cy="36.072" fill="#656566" rx="3.487" ry="3.028" transform="rotate(-77.074 35.707 36.07)"/><path fill="#1f212b" d="M35.52,40.038c-0.233,0-0.469-0.026-0.703-0.08c-0.932-0.214-1.708-0.827-2.188-1.727 c-0.466-0.876-0.594-1.923-0.358-2.949s0.807-1.912,1.608-2.497c0.823-0.601,1.792-0.815,2.722-0.6 c1.896,0.435,3.038,2.532,2.546,4.675l0,0C38.716,38.739,37.171,40.038,35.52,40.038z M35.893,33.105 c-0.491,0-0.984,0.167-1.424,0.488c-0.607,0.443-1.042,1.123-1.223,1.913c-0.182,0.791-0.087,1.591,0.267,2.255 c0.341,0.64,0.884,1.074,1.529,1.222c1.353,0.312,2.763-0.74,3.132-2.346c0.368-1.605-0.437-3.166-1.795-3.477 C36.217,33.124,36.055,33.105,35.893,33.105z"/><path fill="#1f212b" d="M34.7,73.499c-0.085,0-0.17-0.021-0.248-0.066c-3.249-1.854-5.521-3.94-6.948-6.378 c-0.139-0.238-0.059-0.544,0.179-0.684c0.237-0.139,0.544-0.06,0.684,0.179c1.292,2.209,3.35,4.123,6.283,5.843l0.222-0.183 c0.111-0.091,0.255-0.131,0.398-0.107l0.563,0.092l0.484-0.415c0.108-0.093,0.25-0.136,0.393-0.116l0.319,0.043l0.284-0.541 c0.051-0.096,0.13-0.173,0.229-0.219l0.291-0.138v-1.097c-0.082-2.747-0.999-5.819-2.723-9.116 c-0.128-0.245-0.034-0.547,0.211-0.675c0.246-0.129,0.547-0.033,0.675,0.211c1.821,3.481,2.749,6.609,2.837,9.564v1.428 c0,0.193-0.111,0.369-0.286,0.452l-0.426,0.202l-0.369,0.703c-0.098,0.186-0.296,0.292-0.51,0.263l-0.444-0.061l-0.49,0.42 c-0.111,0.096-0.26,0.138-0.406,0.114l-0.569-0.093l-0.315,0.26C34.926,73.46,34.813,73.499,34.7,73.499z M38.333,71.125h0.01 H38.333z"/><path fill="#1f212b" d="M52.622,73.499c-0.113,0-0.226-0.039-0.318-0.114l-0.315-0.26l-0.569,0.093 c-0.146,0.025-0.293-0.018-0.406-0.114l-0.49-0.42l-0.444,0.061c-0.214,0.03-0.412-0.077-0.51-0.263L49.2,71.778l-0.426-0.202 c-0.174-0.083-0.286-0.259-0.286-0.452v-1.413c0.079-2.639,0.859-5.511,2.321-8.551c0.12-0.249,0.419-0.353,0.667-0.234 c0.249,0.12,0.354,0.418,0.234,0.667c-1.4,2.913-2.148,5.649-2.222,8.132v1.082l0.291,0.138c0.098,0.046,0.178,0.124,0.229,0.219 l0.284,0.541l0.319-0.043c0.141-0.02,0.285,0.023,0.393,0.116l0.484,0.415l0.563-0.092c0.142-0.021,0.288,0.016,0.398,0.107 l0.222,0.183c3.198-1.875,5.363-3.987,6.613-6.447c0.125-0.246,0.425-0.345,0.672-0.219c0.246,0.125,0.344,0.426,0.219,0.672 c-1.38,2.715-3.77,5.016-7.306,7.034C52.792,73.477,52.707,73.499,52.622,73.499z M49.489,71.125h0.01H49.489z"/><path fill="#1f212b" d="M41.666,46.007c-0.518,0-1.037-0.129-1.508-0.389l-0.461-0.254 c-0.242-0.133-0.33-0.437-0.197-0.679c0.133-0.242,0.437-0.329,0.679-0.197l0.461,0.254c0.686,0.378,1.522,0.35,2.179-0.077 l0.912-0.59c0.231-0.15,0.541-0.083,0.691,0.148c0.15,0.232,0.083,0.542-0.148,0.691l-0.912,0.59 C42.847,45.839,42.257,46.007,41.666,46.007z"/><path fill="#1f212b" d="M46.34,46.007c-0.592,0-1.182-0.168-1.697-0.502l-0.912-0.59c-0.232-0.15-0.298-0.459-0.148-0.691 s0.459-0.298,0.691-0.148l0.912,0.59c0.658,0.425,1.492,0.455,2.18,0.077l0.461-0.254c0.242-0.132,0.546-0.045,0.679,0.197 s0.045,0.546-0.197,0.679l-0.461,0.254C47.377,45.878,46.858,46.007,46.34,46.007z"/><path fill="#1f212b" d="M43.98,42.58c0,0-0.988-0.475-0.988-0.751s0.224-0.5,0.5-0.5h1.021c0.276,0,0.5,0.224,0.5,0.5 S43.98,42.58,43.98,42.58z"/><ellipse cx="52.709" cy="36.072" fill="#656566" rx="3.028" ry="3.487" transform="rotate(-12.926 52.708 36.071)"/><path fill="#1f212b" d="M52.889,40.039c-0.7,0-1.395-0.232-2.01-0.681c-0.802-0.585-1.373-1.472-1.608-2.497 s-0.108-2.072,0.358-2.949c0.479-0.899,1.256-1.513,2.188-1.727c1.89-0.436,3.838,0.954,4.33,3.097 c0.492,2.143-0.651,4.24-2.546,4.675C53.365,40.012,53.126,40.039,52.889,40.039z M52.523,33.105c-0.161,0-0.322,0.018-0.483,0.055 c-0.645,0.148-1.188,0.582-1.529,1.222c-0.354,0.664-0.448,1.464-0.267,2.255l0,0c0.181,0.791,0.616,1.47,1.223,1.913 c0.586,0.428,1.264,0.58,1.909,0.433c1.358-0.312,2.164-1.872,1.795-3.477C54.847,34.091,53.717,33.105,52.523,33.105z"/><g><path fill="#1f212b" d="M54.29,53.984c-0.189,0-0.371-0.108-0.455-0.292c-0.115-0.251-0.005-0.548,0.246-0.663 c2.368-1.085,4.265-2.536,5.487-4.197c0.164-0.223,0.477-0.27,0.699-0.106c0.222,0.164,0.27,0.477,0.106,0.699 c-1.323,1.797-3.354,3.358-5.875,4.514C54.43,53.969,54.359,53.984,54.29,53.984z"/></g><g><path fill="#1f212b" d="M50.761,55.237c-0.221,0-0.424-0.148-0.483-0.372c-0.071-0.267,0.089-0.541,0.355-0.611 c0.517-0.137,1.021-0.289,1.512-0.456c0.265-0.091,0.546,0.051,0.634,0.312c0.089,0.262-0.051,0.545-0.312,0.634 c-0.512,0.174-1.039,0.333-1.578,0.476C50.847,55.231,50.804,55.237,50.761,55.237z"/></g><g><path fill="#1f212b" d="M33.001,53.639c-0.076,0-0.154-0.018-0.227-0.054c-2.03-1.034-3.663-2.308-4.854-3.785 c-0.173-0.215-0.14-0.53,0.076-0.703c0.214-0.175,0.53-0.14,0.703,0.076c1.086,1.348,2.652,2.565,4.529,3.521 c0.246,0.125,0.344,0.427,0.219,0.673C33.359,53.539,33.184,53.639,33.001,53.639z"/></g><g><path fill="#1f212b" d="M28.881,29.477c-0.086,0-0.173-0.022-0.252-0.069c-0.238-0.14-0.318-0.446-0.178-0.684 c0.395-0.674,0.884-1.327,1.453-1.938c0.189-0.201,0.504-0.212,0.707-0.025c0.202,0.188,0.213,0.504,0.025,0.707 c-0.52,0.558-0.964,1.151-1.323,1.763C29.22,29.388,29.053,29.477,28.881,29.477z"/></g><g><path fill="#1f212b" d="M59.62,30.45c-0.193,0-0.377-0.112-0.458-0.301c-0.624-1.436-1.668-2.748-3.106-3.899 c-0.216-0.172-0.25-0.487-0.078-0.703c0.172-0.214,0.487-0.251,0.703-0.078c1.566,1.254,2.709,2.694,3.398,4.281 c0.11,0.253-0.006,0.548-0.259,0.658C59.754,30.437,59.687,30.45,59.62,30.45z"/></g><g><path fill="#656566" d="M19.521,14.099c0-0.84,0.034-1.668,0.092-2.485c-1.905-0.786-3.905-1.403-5.991-1.811 c1.334,4.528,3.696,8.647,6.82,12.096C19.857,19.458,19.521,16.84,19.521,14.099z"/><path fill="#1f212b" d="M21.386,23.684l-1.313-1.45c-3.207-3.54-5.603-7.79-6.929-12.29L12.91,9.154l0.808,0.158 c2.055,0.402,4.103,1.021,6.086,1.84l0.333,0.138l-0.026,0.36c-0.061,0.856-0.09,1.658-0.09,2.449c0,2.59,0.305,5.175,0.908,7.683 L21.386,23.684z M14.353,10.467c1.125,3.45,2.901,6.729,5.199,9.611c-0.352-1.969-0.53-3.973-0.53-5.979 c0-0.703,0.022-1.412,0.069-2.158C17.539,11.321,15.95,10.827,14.353,10.467z"/></g><g><path fill="#656566" d="M69.398,15.137c0.08-0.836,0.126-1.664,0.146-2.482c1.971-0.601,4.021-1.024,6.137-1.23 c-1.761,4.379-4.506,8.254-7.945,11.389C68.552,20.439,69.136,17.865,69.398,15.137z"/><path fill="#1f212b" d="M66.626,24.5l0.636-1.85c0.839-2.44,1.391-4.984,1.638-7.561c0.076-0.793,0.123-1.594,0.144-2.447 l0.009-0.361l0.345-0.105c2.053-0.626,4.15-1.046,6.233-1.25l0.82-0.08l-0.307,0.764c-1.75,4.353-4.541,8.354-8.072,11.572 L66.626,24.5z M70.034,13.03c-0.025,0.743-0.07,1.451-0.138,2.155l0,0c-0.192,1.997-0.561,3.974-1.1,5.901 c2.563-2.65,4.645-5.744,6.094-9.071C73.266,12.22,71.637,12.561,70.034,13.03z"/></g><g><path fill="#1f212b" d="M54.883,83.319c-0.447,0-0.917-0.049-1.432-0.149c-0.112,0.007-0.228-0.009-0.339-0.046 l-0.445-0.133c-6.321-2.019-10.251-1.999-17.589,0.066c-0.694,0.178-1.326,0.262-1.955,0.262c-5.708,0-10.351-6.343-10.351-14.14 c0-1.496,0.182-2.88,0.541-4.116c0.004-0.036,0.011-0.071,0.02-0.107c0.692-2.84,1.315-5.092,1.865-7.079 c0.76-2.745,1.369-4.944,1.831-7.498c-1.422-1.787-2.171-3.794-2.171-5.834c0-0.715,0.091-1.432,0.271-2.131 c0.577-2.241,1.11-4.655,1.102-7.13l-0.008-2.281c0-1.469,0.353-2.898,1.05-4.264c-7.025-4.147-12.322-10.893-14.609-18.653 c-0.099-0.335-0.016-0.698,0.22-0.956c0.235-0.258,0.588-0.377,0.931-0.308c8.367,1.635,15.834,6.573,20.621,13.603 c2.865-1.292,6.153-1.972,9.567-1.972c3.361,0,6.608,0.66,9.444,1.914c5.447-6.755,13.469-11.091,22.137-11.938 c0.353-0.036,0.688,0.116,0.897,0.396c0.209,0.28,0.258,0.648,0.127,0.973c-2.995,7.449-8.607,13.434-15.87,16.957 c0.694,1.362,1.045,2.786,1.045,4.245l-0.008,2.284c-0.009,2.475,0.524,4.89,1.102,7.131c0.18,0.699,0.271,1.416,0.271,2.131 c0,1.944-0.691,3.875-2.005,5.608c0.536,3.473,1.361,6.669,2.586,11.41l0.688,2.669c0.07,0.301,0.138,0.572,0.205,0.84 c0.3,1.208,0.611,2.458,0.611,4.106C65.234,76.976,60.591,83.319,54.883,83.319z M53.491,81.149 c0.055,0.002,0.11,0.009,0.165,0.021c0.466,0.102,0.856,0.149,1.227,0.149c4.604,0,8.351-5.446,8.351-12.14 c0-1.403-0.256-2.432-0.552-3.624c-0.069-0.277-0.139-0.558-0.206-0.847l-0.682-2.644c-1.291-4.997-2.144-8.297-2.692-12.044 c-0.041-0.278,0.038-0.562,0.216-0.779c1.215-1.482,1.832-3.062,1.832-4.695c0-0.547-0.07-1.096-0.208-1.632 c-0.611-2.371-1.174-4.937-1.165-7.637l0.008-2.281c0-1.421-0.436-2.817-1.296-4.144c-0.159-0.246-0.203-0.548-0.119-0.829 c0.083-0.28,0.285-0.51,0.552-0.629c6.634-2.951,12.071-8.273,15.139-14.757c-7.718,1.203-14.761,5.36-19.523,11.579 c-0.29,0.379-0.807,0.5-1.235,0.29c-2.731-1.343-5.946-2.053-9.298-2.053c-3.427,0-6.702,0.741-9.47,2.142 c-0.459,0.232-1.017,0.08-1.293-0.353c-4.153-6.478-10.689-11.173-18.12-13.076c2.479,6.877,7.506,12.764,13.999,16.323 c0.243,0.133,0.419,0.361,0.488,0.629s0.023,0.553-0.125,0.786c-0.835,1.309-1.259,2.687-1.259,4.095l0.008,2.278 c0.009,2.701-0.554,5.266-1.165,7.636c-0.138,0.536-0.208,1.085-0.208,1.632c0,1.719,0.67,3.367,1.993,4.898 c0.195,0.226,0.279,0.528,0.229,0.823c-0.488,2.849-1.135,5.186-1.954,8.145c-0.537,1.938-1.144,4.13-1.814,6.872 c-0.005,0.069-0.018,0.138-0.039,0.206c-0.332,1.087-0.5,2.329-0.5,3.691c0,6.694,3.746,12.14,8.351,12.14 c0.459,0,0.929-0.063,1.436-0.193c7.671-2.159,12.034-2.174,18.649-0.061c0.014,0.004,0.153,0.045,0.167,0.05L53.491,81.149z"/></g><g><ellipse cx="37.234" cy="35.125" fill="#eeecd9" rx="1.41" ry="1.341" transform="rotate(-77.074 37.232 35.123)"/><path fill="#1f212b" d="M37.209,37.032c-0.134,0-0.268-0.015-0.402-0.046c-0.989-0.227-1.603-1.246-1.368-2.273 c0.236-1.026,1.235-1.676,2.222-1.45c0.99,0.228,1.603,1.248,1.367,2.273c-0.113,0.493-0.403,0.915-0.817,1.188 C37.906,36.927,37.561,37.032,37.209,37.032z M37.263,34.218c-0.39,0-0.751,0.293-0.849,0.719 c-0.112,0.489,0.165,0.971,0.617,1.075c0.213,0.047,0.438,0.006,0.629-0.12c0.199-0.131,0.339-0.337,0.394-0.578l0,0 c0.112-0.489-0.164-0.971-0.617-1.075C37.379,34.225,37.321,34.218,37.263,34.218z"/></g><g><ellipse cx="51.149" cy="35.125" fill="#eeecd9" rx="1.41" ry="1.341" transform="rotate(-77.074 51.147 35.123)"/><path fill="#1f212b" d="M51.12,37.031c-0.132,0-0.265-0.015-0.398-0.045c-0.484-0.111-0.893-0.412-1.15-0.847 c-0.253-0.427-0.331-0.934-0.217-1.426c0.236-1.026,1.233-1.677,2.222-1.45c0.99,0.228,1.604,1.248,1.368,2.273 C52.74,36.425,51.966,37.031,51.12,37.031z M51.178,34.218c-0.39,0-0.751,0.293-0.849,0.719c-0.056,0.241-0.019,0.487,0.103,0.692 c0.117,0.197,0.3,0.333,0.514,0.382c0.448,0.102,0.911-0.209,1.023-0.698s-0.165-0.971-0.617-1.075 C51.294,34.225,51.236,34.218,51.178,34.218z"/></g></svg>