<svg xmlns="http://www.w3.org/2000/svg" viewBox="0 0 100 100"><ellipse cx="49.961" cy="18.53" fill="#444445" rx="1.082" ry="7.387"/><path fill="#1f212b" d="M49.961,26.416c-1.377,0-1.583-4.941-1.583-7.886s0.206-7.887,1.583-7.887s1.583,4.941,1.583,7.887 S51.338,26.416,49.961,26.416z M49.961,12.036c-0.267,0.915-0.583,3.093-0.583,6.494c0,3.4,0.316,5.579,0.583,6.494 c0.267-0.915,0.583-3.093,0.583-6.494C50.543,15.129,50.228,12.951,49.961,12.036z"/><ellipse cx="48.469" cy="20.519" fill="#444445" rx="1.082" ry="7.387" transform="rotate(-35.689 48.47 20.518)"/><path fill="#1f212b" d="M52.72,27.031c-1.311,0-3.974-3.415-5.536-5.589c-1.718-2.393-4.434-6.526-3.315-7.329 c1.114-0.798,4.167,3.09,5.886,5.482l0,0c1.165,1.622,2.169,3.216,2.828,4.489c0.866,1.674,1.003,2.47,0.488,2.84 C52.968,26.997,52.851,27.031,52.72,27.031z M44.681,15.245c0.317,0.898,1.332,2.852,3.315,5.614 c1.984,2.761,3.511,4.347,4.262,4.934c-0.317-0.898-1.332-2.852-3.316-5.614l0,0C46.958,17.417,45.431,15.832,44.681,15.245z"/><ellipse cx="51.453" cy="20.519" fill="#444445" rx="7.387" ry="1.082" transform="rotate(-54.31 51.452 20.518)"/><path fill="#1f212b" d="M47.203,27.031c-0.131,0-0.249-0.034-0.351-0.107c-1.118-0.803,1.597-4.937,3.315-7.329l0,0 c1.718-2.393,4.77-6.283,5.886-5.482c1.118,0.803-1.597,4.937-3.315,7.329C51.176,23.617,48.514,27.031,47.203,27.031z M50.98,20.179c-1.984,2.762-2.999,4.716-3.315,5.614c0.75-0.587,2.277-2.173,4.261-4.934c1.984-2.762,2.999-4.716,3.315-5.614 C54.491,15.832,52.964,17.417,50.98,20.179L50.98,20.179z"/><path fill="#f9e65c" d="M66.044,27.823l-4.808,1.738l2.723,36.465c5.949-1.756,10.841-5.519,13.572-10.4 c0.892-1.593,1.382-3.392,1.452-5.216l0.001-0.027C79.331,40.966,74.101,32.547,66.044,27.823z"/><path fill="#1f212b" d="M63.958,67.027c-0.201,0-0.399-0.061-0.568-0.177c-0.249-0.172-0.406-0.447-0.429-0.749 l-2.723-36.465c-0.034-0.447,0.235-0.862,0.657-1.015l4.808-1.738c0.278-0.102,0.588-0.073,0.846,0.078 c8.633,5.062,13.781,14.051,13.434,23.46c-0.078,2.026-0.624,3.985-1.58,5.695c-2.85,5.094-8.012,9.056-14.162,10.871 C64.148,67.013,64.053,67.027,63.958,67.027z M62.29,30.244l2.571,34.441c5.127-1.802,9.384-5.232,11.797-9.546 c0.803-1.435,1.261-3.083,1.326-4.766c0.315-8.552-4.291-16.719-12.046-21.448L62.29,30.244z"/><path fill="#f9e65c" d="M32.739,29.634l4.356,1.575l-2.467,33.04c-5.39-1.591-9.823-5.001-12.297-9.423 c-0.808-1.444-1.252-3.073-1.315-4.726l-0.001-0.024C20.7,41.542,25.439,33.914,32.739,29.634z"/><path fill="#1f212b" d="M34.628,65.25c-0.095,0-0.19-0.014-0.283-0.041c-5.595-1.651-10.292-5.258-12.887-9.894 c-0.874-1.561-1.373-3.352-1.442-5.177c-0.317-8.585,4.365-16.762,12.217-21.366c0.257-0.15,0.565-0.179,0.846-0.078l4.356,1.575 c0.422,0.152,0.691,0.567,0.657,1.015l-2.467,33.04c-0.022,0.301-0.18,0.576-0.429,0.748C35.028,65.189,34.829,65.25,34.628,65.25 z M32.846,30.736c-6.976,4.27-11.115,11.625-10.832,19.302c0.058,1.534,0.469,3.013,1.189,4.299 c2.158,3.856,5.951,6.929,10.522,8.566l2.316-31.012L32.846,30.736z"/><path fill="#f9e65c" d="M64.53,81.033c6.119-3.48,10.096-9.097,10.096-15.439c0-5.731-3.249-12.841-8.39-18.151 c1.801-2.794,2.858-6.076,2.858-9.602c0-10.114-8.548-18.312-19.093-18.312s-19.093,8.199-19.093,18.312 c0,3.526,1.057,6.808,2.858,9.602c-5.141,5.31-8.39,12.42-8.39,18.151c0,6.341,3.977,11.959,10.096,15.439 c-2.159,2.11-4.885,5.275-5.359,7.463c0.934-0.555,2.341-0.909,3.916-0.909c1.893,0,3.542,0.512,4.419,1.27h0.173 c0.877-0.758,2.525-1.27,4.419-1.27c1.575,0,2.983,0.354,3.916,0.909c-0.267-1.231-1.254-2.77-2.445-4.259 c1.767,0.313,3.603,0.483,5.491,0.483s3.725-0.171,5.491-0.483c-1.191,1.489-2.178,3.028-2.445,4.259 c0.934-0.555,2.341-0.909,3.916-0.909c1.893,0,3.542,0.512,4.419,1.27h0.173c0.877-0.758,2.525-1.27,4.419-1.27 c1.575,0,2.983,0.354,3.916,0.909C69.415,86.308,66.689,83.143,64.53,81.033z"/><path fill="#1f212b" d="M61.554,89.857h-0.173c-0.24,0-0.472-0.086-0.654-0.244c-0.721-0.624-2.199-1.026-3.764-1.026 c-1.323,0-2.596,0.288-3.406,0.769c-0.341,0.204-0.771,0.185-1.095-0.048c-0.323-0.232-0.478-0.634-0.394-1.023 c0.17-0.786,0.586-1.701,1.242-2.734c-2.205,0.227-4.416,0.227-6.621,0c0.656,1.034,1.072,1.949,1.242,2.734 c0.084,0.389-0.07,0.791-0.394,1.023c-0.322,0.232-0.753,0.252-1.095,0.048c-0.81-0.481-2.083-0.769-3.406-0.769 c-1.565,0-3.043,0.403-3.764,1.026c-0.182,0.157-0.414,0.244-0.654,0.244h-0.173c-0.24,0-0.472-0.086-0.654-0.244 c-0.721-0.624-2.199-1.026-3.765-1.026c-1.323,0-2.596,0.288-3.405,0.769c-0.342,0.205-0.772,0.186-1.095-0.048 c-0.323-0.232-0.478-0.634-0.394-1.023c0.507-2.339,3.035-5.286,4.73-7.051c-5.967-3.804-9.49-9.57-9.49-15.639 c0-5.801,3.174-12.899,8.136-18.28c-1.706-2.9-2.604-6.159-2.604-9.473c0-10.649,9.014-19.313,20.093-19.313 s20.093,8.664,20.093,19.313c0,3.314-0.898,6.573-2.604,9.473c4.962,5.38,8.136,12.479,8.136,18.28 c0,6.068-3.523,11.835-9.49,15.639c1.696,1.766,4.224,4.712,4.73,7.051c0.084,0.389-0.07,0.791-0.394,1.023 c-0.322,0.232-0.752,0.253-1.095,0.048c-0.809-0.481-2.082-0.769-3.405-0.769c-1.566,0-3.044,0.403-3.765,1.026 C62.026,89.771,61.794,89.857,61.554,89.857z M56.962,86.587c1.756,0,3.382,0.403,4.505,1.1c1.123-0.696,2.749-1.1,4.505-1.1 c0.717,0,1.419,0.069,2.077,0.199c-1.007-1.643-2.685-3.539-4.218-5.037c-0.225-0.22-0.333-0.532-0.293-0.843 s0.224-0.586,0.497-0.741c6.005-3.416,9.59-8.862,9.59-14.57c0-5.516-3.183-12.367-8.108-17.456 c-0.323-0.333-0.374-0.846-0.123-1.237c1.765-2.74,2.698-5.873,2.698-9.061c0-9.546-8.116-17.313-18.093-17.313 s-18.093,7.766-18.093,17.313c0,3.188,0.933,6.321,2.698,9.061c0.251,0.391,0.201,0.903-0.123,1.237 c-4.926,5.088-8.108,11.94-8.108,17.456c0,5.708,3.585,11.154,9.59,14.57c0.273,0.155,0.457,0.43,0.497,0.741 s-0.068,0.624-0.293,0.843c-1.533,1.499-3.211,3.394-4.218,5.037c0.657-0.13,1.36-0.199,2.077-0.199c1.757,0,3.382,0.403,4.505,1.1 c1.123-0.696,2.749-1.1,4.505-1.1c0.713,0,1.412,0.068,2.066,0.197c-0.331-0.537-0.776-1.173-1.376-1.922 c-0.26-0.325-0.292-0.777-0.079-1.135s0.621-0.547,1.034-0.475c3.512,0.621,7.122,0.621,10.634,0 c0.413-0.073,0.822,0.117,1.034,0.475s0.181,0.81-0.079,1.135c-0.6,0.75-1.045,1.386-1.376,1.922 C55.55,86.655,56.25,86.587,56.962,86.587z"/><g><path fill="#fefdef" d="M64.25,46.664c-1.11-1.162-1.483-2.835-0.987-4.363c0.972-2.994,0.779-5.575-0.722-6.519 c-0.394-0.247-0.85-0.365-1.35-0.365c-3.318,0.003-6.525-1.343-9.113-3.419c-0.636-0.51-1.339-0.793-2.077-0.793 c-0.739,0-1.441,0.283-2.077,0.793c-2.588,2.076-5.796,3.422-9.114,3.419c-0.5,0-0.956,0.117-1.35,0.365 c-1.501,0.943-1.694,3.524-0.722,6.519c0.496,1.528,0.123,3.202-0.987,4.363c-0.936,0.98-1.459,2.073-1.459,3.225 c0,4.227,7.033,7.654,15.709,7.654c8.676,0,15.709-3.427,15.709-7.654C65.709,48.737,65.186,47.644,64.25,46.664z"/><path fill="#1f212b" d="M50,58.043c-9.089,0-16.209-3.582-16.209-8.154c0-1.26,0.538-2.461,1.598-3.571 c0.979-1.025,1.313-2.505,0.873-3.864c-1.082-3.336-0.725-6.055,0.932-7.097c0.467-0.292,1.009-0.441,1.613-0.441 c0.004,0,0.009,0,0.014,0c3.008,0,6.129-1.175,8.79-3.309c1.495-1.198,3.286-1.198,4.78,0c2.661,2.134,5.782,3.309,8.79,3.309 c0.005,0,0.011,0.001,0.014,0c0.604,0,1.146,0.148,1.613,0.44c1.657,1.042,2.015,3.762,0.932,7.097 c-0.441,1.358-0.106,2.838,0.873,3.864l0,0c1.06,1.109,1.598,2.311,1.598,3.571C66.209,54.462,59.089,58.043,50,58.043z M38.806,35.917c-0.413,0-0.777,0.097-1.082,0.288c-1.23,0.773-1.432,3.105-0.512,5.941c0.555,1.708,0.133,3.572-1.101,4.863 c-0.876,0.917-1.32,1.887-1.32,2.88c0,3.878,6.965,7.154,15.209,7.154s15.209-3.276,15.209-7.154c0-0.994-0.444-1.963-1.32-2.88 l0,0c-1.234-1.291-1.656-3.154-1.101-4.863c0.92-2.835,0.719-5.167-0.513-5.941c-0.304-0.191-0.668-0.288-1.081-0.288 c-0.002-0.001-0.009,0-0.014,0c-3.235,0-6.578-1.253-9.416-3.528c-1.13-0.907-2.398-0.907-3.528,0 c-2.837,2.276-6.181,3.529-9.416,3.529C38.815,35.917,38.807,35.917,38.806,35.917z"/></g><g><ellipse cx="40.2" cy="30.689" fill="#eeecd9" rx="4.125" ry="2.75" transform="rotate(-16.715 40.205 30.692)"/><path fill="#1f212b" d="M39.321,33.949c-1.669,0-3.061-0.736-3.431-1.966c-0.495-1.65,1.035-3.573,3.411-4.287 c1.125-0.337,2.277-0.362,3.242-0.067c1.02,0.311,1.718,0.938,1.966,1.766l0,0c0.249,0.828,0.011,1.735-0.668,2.557 c-0.644,0.778-1.617,1.392-2.743,1.73C40.494,33.863,39.891,33.949,39.321,33.949z M41.1,28.173c-0.512,0-1.049,0.081-1.583,0.241 c-1.98,0.595-3.285,2.099-2.908,3.353c0.377,1.254,2.295,1.793,4.274,1.196c0.985-0.295,1.831-0.825,2.38-1.49 c0.514-0.622,0.702-1.283,0.527-1.863l0,0c-0.174-0.58-0.694-1.028-1.466-1.264C41.947,28.231,41.533,28.173,41.1,28.173z"/></g><g><path fill="#1f212b" d="M39.524,33.954c-0.507,0-0.995-0.068-1.443-0.205c-1.02-0.311-1.718-0.938-1.966-1.766 s-0.011-1.735,0.668-2.556c0.644-0.778,1.618-1.393,2.743-1.731c2.377-0.712,4.713,0.049,5.209,1.699l0,0 c0.495,1.65-1.035,3.573-3.411,4.287C40.72,33.862,40.109,33.954,39.524,33.954z M41.34,28.172c-0.507,0-1.051,0.078-1.599,0.243 c-0.985,0.295-1.831,0.825-2.38,1.49c-0.514,0.622-0.702,1.284-0.527,1.863c0.174,0.58,0.694,1.028,1.466,1.264 c0.825,0.252,1.822,0.228,2.808-0.068c1.98-0.595,3.285-2.099,2.908-3.353l0,0C43.743,28.704,42.665,28.172,41.34,28.172z"/></g><g><ellipse cx="59.576" cy="30.689" fill="#eeecd9" rx="2.75" ry="4.125" transform="rotate(-73.285 59.577 30.69)"/><path fill="#1f212b" d="M60.476,33.954c-0.585,0-1.196-0.091-1.799-0.272c-2.376-0.714-3.906-2.637-3.411-4.287l0,0 c0.496-1.651,2.833-2.412,5.209-1.699c1.125,0.338,2.099,0.953,2.743,1.731c0.679,0.821,0.917,1.729,0.668,2.556 s-0.947,1.455-1.966,1.766C61.471,33.885,60.983,33.954,60.476,33.954z M55.984,29.61c-0.376,1.254,0.928,2.758,2.908,3.353 c0.985,0.297,1.984,0.321,2.808,0.068c0.772-0.236,1.292-0.685,1.466-1.264c0.174-0.579-0.013-1.241-0.527-1.863 c-0.55-0.665-1.396-1.194-2.38-1.49C58.278,27.82,56.362,28.355,55.984,29.61L55.984,29.61z"/></g><g><path fill="#1f212b" d="M48.339,37.036c-0.068,0-0.136-0.019-0.198-0.057l-0.819-0.512 c-0.176-0.11-0.229-0.341-0.119-0.517c0.109-0.176,0.341-0.229,0.517-0.119l0.819,0.512c0.176,0.11,0.229,0.341,0.119,0.517 C48.587,36.974,48.464,37.036,48.339,37.036z"/><path fill="#1f212b" d="M51.661,37.036c-0.125,0-0.248-0.063-0.318-0.176c-0.11-0.176-0.057-0.407,0.119-0.517l0.819-0.512 c0.176-0.109,0.407-0.057,0.517,0.119c0.11,0.176,0.057,0.407-0.119,0.517l-0.819,0.512 C51.797,37.018,51.729,37.036,51.661,37.036z"/></g><g><path fill="#1f212b" d="M49.998,84.707c-5.653,0-10.973-1.437-15.384-4.155c-0.235-0.145-0.308-0.453-0.164-0.688 c0.145-0.235,0.453-0.31,0.688-0.164c4.193,2.584,9.47,4.007,14.86,4.007c6.165,0,12.007-1.804,16.45-5.079 c0.223-0.164,0.535-0.117,0.699,0.105c0.164,0.223,0.117,0.536-0.105,0.699C62.428,82.833,56.375,84.707,49.998,84.707z"/></g><g><circle cx="41.73" cy="29.985" r=".455" fill="#1f212b"/><path fill="#1f212b" d="M41.729,30.94c-0.156,0-0.311-0.039-0.452-0.114c-0.225-0.121-0.389-0.322-0.462-0.567 c-0.073-0.244-0.047-0.502,0.074-0.727c0.121-0.225,0.322-0.389,0.566-0.462c0.244-0.074,0.502-0.048,0.727,0.074 c0.225,0.121,0.389,0.322,0.463,0.566c0.073,0.244,0.047,0.502-0.074,0.727c-0.121,0.225-0.322,0.389-0.566,0.463 C41.914,30.927,41.821,30.94,41.729,30.94z M41.687,29.998c0.007,0.021,0.038,0.038,0.056,0.031L41.687,29.998z"/></g><g><circle cx="58.046" cy="29.985" r=".455" fill="#1f212b"/><path fill="#1f212b" d="M58.047,30.94c-0.092,0-0.185-0.013-0.275-0.041c-0.245-0.074-0.446-0.238-0.566-0.463 c-0.121-0.224-0.147-0.482-0.074-0.727c0.073-0.245,0.238-0.446,0.462-0.566c0.224-0.12,0.483-0.148,0.727-0.074 c0.245,0.073,0.446,0.237,0.566,0.462c0.121,0.225,0.147,0.483,0.074,0.727c-0.073,0.245-0.238,0.446-0.462,0.567 C58.357,30.902,58.203,30.94,58.047,30.94z M58.059,29.942l0.031,0.056C58.095,29.978,58.079,29.948,58.059,29.942z"/></g></svg>