<svg xmlns="http://www.w3.org/2000/svg" viewBox="0 0 100 100"><path fill="#eeecd9" d="M36.272,84.976H25.007c-1.535,0-2.779-1.244-2.779-2.779v0c0-3.01,2.44-5.45,5.45-5.45h12.036 v4.787C39.714,83.435,38.173,84.976,36.272,84.976z"/><path fill="#1f212b" d="M36.272,85.977H25.007c-2.083,0-3.778-1.695-3.778-3.779c0-3.556,2.894-6.45,6.45-6.45h12.035 c0.553,0,1,0.448,1,1v4.787C40.714,83.984,38.722,85.977,36.272,85.977z M27.679,77.748c-2.454,0-4.45,1.996-4.45,4.45 c0,0.981,0.798,1.779,1.778,1.779h11.266c1.347,0,2.441-1.095,2.441-2.442v-3.787H27.679z"/><path fill="#eeecd9" d="M63.728,84.976h11.265c1.535,0,2.779-1.244,2.779-2.779v0c0-3.01-2.44-5.45-5.45-5.45H60.286v4.787 C60.286,83.435,61.827,84.976,63.728,84.976z"/><path fill="#1f212b" d="M74.993,85.977H63.728c-2.449,0-4.441-1.993-4.441-4.442v-4.787c0-0.552,0.447-1,1-1h12.035 c3.557,0,6.45,2.894,6.45,6.45C78.771,84.281,77.076,85.977,74.993,85.977z M61.286,77.748v3.787c0,1.347,1.095,2.442,2.441,2.442 h11.266c0.98,0,1.778-0.798,1.778-1.779c0-2.454-1.996-4.45-4.45-4.45H61.286z"/><path fill="#09ace3" d="M76.5,41.016c-4.754-3.66-9.55-5.965-12.621-6.292c1.036-1.679,1.621-3.571,1.621-5.576 c0-2.424-0.863-4.679-2.333-6.597l1.068-7.094c0.094-0.627-0.524-1.122-1.115-0.893l-7.495,2.902 C53.879,16.913,51.987,16.6,50,16.6s-3.879,0.314-5.625,0.865l-7.495-2.902c-0.591-0.229-1.21,0.266-1.115,0.893l1.068,7.094 c-1.47,1.918-2.333,4.174-2.333,6.597c0,2.005,0.585,3.897,1.621,5.576c-3.071,0.327-7.867,2.632-12.621,6.292 c-6.857,5.28-11.02,11.371-9.299,13.606c1.164,1.512,4.724,0.866,9.026-1.34c-1.443,3.023-2.241,6.342-2.241,9.825 c0,2.588,0.441,5.086,1.26,7.438c1.978,5.681,7.403,9.458,13.446,9.458h28.617c6.043,0,11.468-3.777,13.446-9.458 c0.819-2.353,1.26-4.85,1.26-7.438c0-3.483-0.798-6.802-2.241-9.825c4.302,2.206,7.862,2.851,9.026,1.34 C87.52,52.387,83.357,46.295,76.5,41.016z"/><path fill="#1f212b" d="M64.309,81.003H35.691c-6.497,0-12.28-4.071-14.391-10.129c-0.873-2.506-1.315-5.12-1.315-7.767 c0-2.689,0.45-5.319,1.342-7.847c-3.855,1.569-6.683,1.577-7.919-0.028c-2.446-3.177,2.919-9.955,9.481-15.009 c4.105-3.161,8.43-5.451,11.695-6.239c-0.721-1.539-1.085-3.16-1.085-4.837c0-2.412,0.788-4.774,2.283-6.859l-1.007-6.683 c-0.098-0.651,0.15-1.285,0.664-1.697c0.515-0.412,1.188-0.515,1.802-0.278l7.171,2.777c3.623-1.072,7.551-1.072,11.174,0 l7.171-2.777c0.612-0.236,1.286-0.135,1.802,0.278c0.514,0.412,0.762,1.046,0.664,1.697l-1.007,6.683 c1.495,2.085,2.283,4.447,2.283,6.859c0,1.677-0.364,3.298-1.085,4.837c3.266,0.788,7.59,3.079,11.695,6.239l0,0 c6.563,5.054,11.928,11.832,9.481,15.008c-1.237,1.605-4.063,1.597-7.919,0.028c0.892,2.528,1.342,5.158,1.342,7.847 c0,2.647-0.442,5.261-1.315,7.767C76.589,76.933,70.806,81.003,64.309,81.003z M23.227,52.282c0.254,0,0.506,0.097,0.697,0.283 c0.308,0.299,0.39,0.761,0.205,1.148c-1.422,2.979-2.144,6.14-2.144,9.395c0,2.423,0.405,4.815,1.204,7.109 c1.83,5.256,6.854,8.788,12.502,8.788h28.617c5.647,0,10.672-3.531,12.502-8.788c0.799-2.294,1.204-4.686,1.204-7.109 c0-3.254-0.722-6.415-2.144-9.395c-0.185-0.387-0.103-0.849,0.205-1.148c0.309-0.299,0.773-0.368,1.153-0.172 c4.748,2.435,7.253,2.301,7.778,1.62c1.021-1.327-2.023-6.74-9.118-12.204l0,0c-4.395-3.384-9.15-5.774-12.116-6.091 c-0.342-0.036-0.641-0.245-0.792-0.554s-0.134-0.673,0.046-0.965c0.978-1.584,1.473-3.284,1.473-5.051 c0-2.102-0.735-4.173-2.128-5.989c-0.165-0.215-0.235-0.489-0.195-0.757l1.024-6.798l-7.215,2.794 c-0.212,0.083-0.445,0.089-0.662,0.021c-3.443-1.087-7.205-1.087-10.648,0c-0.216,0.067-0.45,0.061-0.662-0.021l-7.215-2.794 l1.024,6.798c0.04,0.269-0.03,0.542-0.195,0.757c-1.393,1.815-2.128,3.887-2.128,5.989c0,1.768,0.495,3.467,1.473,5.051 c0.18,0.292,0.197,0.657,0.046,0.965s-0.45,0.518-0.792,0.554c-2.966,0.316-7.722,2.707-12.116,6.091 c-7.095,5.463-10.14,10.877-9.118,12.204c0.525,0.682,3.033,0.813,7.778-1.62C22.915,52.318,23.071,52.282,23.227,52.282z"/><path fill="#eeecd9" d="M59.703,35.171c1.185-1.456,1.881-3.189,1.881-5.053c0-4.238-3.569-7.814-8.422-8.92L50,24.484 l-3.162-3.286c-4.854,1.106-8.422,4.682-8.422,8.92c0,1.88,0.707,3.629,1.911,5.093c-7.793,5.325-11.661,16.447-11.661,23.312 c0,9.278,9.552,16.8,21.334,16.8s21.334-7.521,21.334-16.8C71.334,51.641,67.56,40.481,59.703,35.171z"/><path fill="#1f212b" d="M50,75.822c-12.039,0-21.834-7.761-21.834-17.3c0-6.365,3.556-17.711,11.444-23.418 c-1.111-1.51-1.695-3.223-1.695-4.986c0-4.357,3.623-8.225,8.812-9.407c0.173-0.04,0.351,0.014,0.472,0.141L50,23.763l2.802-2.911 c0.122-0.126,0.301-0.18,0.472-0.141c5.188,1.182,8.812,5.05,8.812,9.407c0,1.743-0.574,3.442-1.666,4.942 c7.419,5.313,11.415,15.969,11.415,23.462C71.834,68.062,62.039,75.822,50,75.822z M46.676,21.751 c-4.584,1.147-7.761,4.555-7.761,8.367c0,1.695,0.622,3.347,1.798,4.775c0.09,0.108,0.129,0.25,0.109,0.388 c-0.02,0.139-0.097,0.263-0.213,0.342c-7.894,5.393-11.443,16.637-11.443,22.899c0,8.988,9.346,16.3,20.834,16.3 s20.834-7.312,20.834-16.3c0-6.322-3.54-17.618-11.411-22.937c-0.116-0.079-0.194-0.202-0.215-0.341 c-0.02-0.139,0.019-0.28,0.107-0.389c1.157-1.421,1.77-3.059,1.77-4.737c0-3.812-3.177-7.22-7.761-8.367l-2.964,3.08 c-0.189,0.196-0.531,0.196-0.721,0L46.676,21.751z"/><path fill="#1f212b" d="M50,38.862c-2.811,0-5.546-0.644-7.702-1.813c-0.243-0.131-0.333-0.435-0.201-0.678 c0.133-0.244,0.435-0.332,0.678-0.201c3.311,1.794,8.206,2.185,12.097,0.98c0.264-0.082,0.543,0.066,0.625,0.33 c0.082,0.264-0.065,0.544-0.33,0.625C53.546,38.607,51.808,38.862,50,38.862z"/><g><path fill="#1f212b" d="M45.649,28.436h-2.299c-0.276,0-0.5-0.224-0.5-0.5s0.224-0.5,0.5-0.5h2.299 c0.276,0,0.5,0.224,0.5,0.5S45.926,28.436,45.649,28.436z"/><path fill="#1f212b" d="M56.649,28.436h-2.299c-0.276,0-0.5-0.224-0.5-0.5s0.224-0.5,0.5-0.5h2.299 c0.276,0,0.5,0.224,0.5,0.5S56.926,28.436,56.649,28.436z"/></g><g><path fill="#1f212b" d="M52.319,31.649h-4.639c-0.276,0-0.5-0.224-0.5-0.5s0.224-0.5,0.5-0.5h4.639 c0.276,0,0.5,0.224,0.5,0.5S52.596,31.649,52.319,31.649z"/></g><g><path fill="#1f212b" d="M42.25,71.441c-0.055,0-0.111-0.009-0.166-0.028c-6.645-2.339-10.938-7.44-10.938-12.994 c0-2.608,0.611-5.744,1.722-8.831c0.094-0.259,0.383-0.394,0.64-0.301c0.26,0.094,0.395,0.38,0.302,0.64 c-1.072,2.98-1.663,5.996-1.663,8.492c0,5.124,4.031,9.854,10.271,12.051c0.261,0.092,0.397,0.377,0.306,0.638 C42.649,71.313,42.456,71.441,42.25,71.441z"/></g><g><path fill="#1f212b" d="M43.276,71.774c-0.047,0-0.095-0.006-0.143-0.021c-0.354-0.105-0.705-0.22-1.05-0.341 c-0.261-0.092-0.397-0.377-0.306-0.638s0.376-0.397,0.638-0.306c0.329,0.116,0.664,0.225,1.003,0.325 c0.265,0.079,0.415,0.357,0.337,0.622C43.691,71.633,43.492,71.774,43.276,71.774z"/></g><g><path fill="#1f212b" d="M50,72.734c-1.471,0-2.938-0.13-4.358-0.385c-0.271-0.049-0.452-0.309-0.403-0.581 c0.049-0.273,0.313-0.453,0.581-0.404c1.362,0.245,2.769,0.37,4.181,0.37c0.276,0,0.5,0.224,0.5,0.5S50.276,72.734,50,72.734z"/></g></svg>