<svg xmlns="http://www.w3.org/2000/svg" viewBox="0 0 48 48"><path fill="#2196f3" d="M24,4C12.954,4,4,12.954,4,24h40C44,12.954,35.046,4,24,4z"/><path fill="#e4e8ea" d="M24,44c11.046,0,20-8.954,20-20H4C4,35.046,12.954,44,24,44z"/><path fill="#cfd8dc" d="M24,44c11.046,0,20-8.954,20-20c0,0-0.16,16-20,16S4,24,4,24C4,35.046,12.954,44,24,44z"/><path fill="#37474f" d="M4,24c0,0.338,0.034,0.667,0.05,1H43.95c0.017-0.333,0.05-0.662,0.05-1s-0.034-0.667-0.05-1H4.05 C4.034,23.333,4,23.662,4,24z"/><path fill="#fff" d="M24 19A5 5 0 1 0 24 29A5 5 0 1 0 24 19Z"/><path fill="#37474f" d="M24,20c2.206,0,4,1.794,4,4s-1.794,4-4,4s-4-1.794-4-4S21.794,20,24,20 M24,18c-3.314,0-6,2.686-6,6 c0,3.313,2.686,6,6,6c3.314,0,6-2.688,6-6C30,20.686,27.314,18,24,18L24,18z"/><path fill="#37474f" d="M24 22A2 2 0 1 0 24 26A2 2 0 1 0 24 22Z"/><path fill="#ff3d00" d="M39.973 12H31v5h11.716C42.04 15.194 41.113 13.515 39.973 12zM5.284 17H17v-5H8.027C6.887 13.515 5.96 15.194 5.284 17z"/></svg>